<?xml version="1.0" encoding="UTF-8" standalone="no"?>
<!-- Created with Inkscape (http://www.inkscape.org/) -->

<svg
   xmlns:dc="http://purl.org/dc/elements/1.1/"
   xmlns:cc="http://creativecommons.org/ns#"
   xmlns:rdf="http://www.w3.org/1999/02/22-rdf-syntax-ns#"
   xmlns:svg="http://www.w3.org/2000/svg"
   xmlns="http://www.w3.org/2000/svg"
   xmlns:sodipodi="http://sodipodi.sourceforge.net/DTD/sodipodi-0.dtd"
   xmlns:inkscape="http://www.inkscape.org/namespaces/inkscape"
   width="210mm"
   height="297mm"
   viewBox="0 0 744.09448819 1052.3622047"
   id="svg2"
   version="1.1"
   inkscape:version="0.91 r13725"
   sodipodi:docname="A Maze Runner.svg">
  <defs
     id="defs4">
    <inkscape:perspective
       sodipodi:type="inkscape:persp3d"
       inkscape:vp_x="0 : 526.1811 : 1"
       inkscape:vp_y="0 : 1000 : 0"
       inkscape:vp_z="744.09449 : 526.1811 : 1"
       inkscape:persp3d-origin="372.04724 : 350.7874 : 1"
       id="perspective3444" />
  </defs>
  <sodipodi:namedview
     id="base"
     pagecolor="#ffffff"
     bordercolor="#666666"
     borderopacity="1.0"
     inkscape:pageopacity="0.0"
     inkscape:pageshadow="2"
     inkscape:zoom="0.35"
     inkscape:cx="375"
     inkscape:cy="738.63627"
     inkscape:document-units="px"
     inkscape:current-layer="layer1"
     showgrid="false"
     inkscape:window-width="1366"
     inkscape:window-height="706"
     inkscape:window-x="-8"
     inkscape:window-y="-8"
     inkscape:window-maximized="1" />
  <metadata
     id="metadata7">
    <rdf:RDF>
      <cc:Work
         rdf:about="">
        <dc:format>image/svg+xml</dc:format>
        <dc:type
           rdf:resource="http://purl.org/dc/dcmitype/StillImage" />
        <dc:title />
      </cc:Work>
    </rdf:RDF>
  </metadata>
  <g
     inkscape:label="Layer 1"
     inkscape:groupmode="layer"
     id="layer1">
    <path
       style="fill:#aa4400;stroke:#000000"
       id="path3366"
       sodipodi:type="arc"
       sodipodi:cx="351.42859"
       sodipodi:cy="93.790779"
       sodipodi:rx="80"
       sodipodi:ry="90"
       sodipodi:start="0"
       sodipodi:end="6.1615708"
       sodipodi:open="true"
       d="M 431.42859,93.790779 A 80,90 0 0 1 353.8605,183.74919 80,90 0 0 1 271.57644,99.26006 80,90 0 0 1 344.14183,4.1648937 80,90 0 0 1 430.83771,82.872434" />
    <path
       style="fill:#aa4400;stroke:#000000"
       id="path3368"
       sodipodi:type="arc"
       sodipodi:cx="75.71431"
       sodipodi:cy="230.93362"
       sodipodi:rx="92.85714"
       sodipodi:ry="92.85714"
       sodipodi:start="0"
       sodipodi:end="6.1615708"
       sodipodi:open="true"
       d="M 168.57145,230.93362 A 92.85714,92.85714 0 0 1 78.537069,323.74785 92.85714,92.85714 0 0 1 -16.971212,236.57653 92.85714,92.85714 0 0 1 67.256467,138.46248 92.85714,92.85714 0 0 1 167.88561,219.66867" />
    <ellipse
       style="fill:#aa4400;stroke:#000000"
       id="path3338"
       cx="282.85712"
       cy="310.93362"
       rx="162.85715"
       ry="170" />
    <path
       style="fill:#2b1100;stroke:#000000"
       id="path3371"
       sodipodi:type="arc"
       sodipodi:cx="344.28564"
       sodipodi:cy="76.647896"
       sodipodi:rx="67.14286"
       sodipodi:ry="58.57143"
       sodipodi:start="0"
       sodipodi:end="6.1615708"
       sodipodi:open="true"
       d="M 411.4285,76.647896 A 67.14286,58.57143 0 0 1 346.32672,135.19226 67.14286,58.57143 0 0 1 277.26688,80.207269 67.14286,58.57143 0 0 1 338.16997,18.319937 67.14286,58.57143 0 0 1 410.93259,69.542306" />
    <path
       style="fill:#2b1100;stroke:#000000"
       id="path3373"
       sodipodi:type="arc"
       sodipodi:cx="47.142773"
       sodipodi:cy="218.07648"
       sodipodi:rx="61.42857"
       sodipodi:ry="57.142857"
       sodipodi:start="0"
       sodipodi:end="6.1615708"
       sodipodi:open="true"
       d="m 108.57134,218.07648 a 61.42857,57.142857 0 0 1 -59.561204,57.11644 61.42857,57.142857 0 0 1 -63.182401,-53.64388 61.42857,57.142857 0 0 1 55.719849,-60.37789 61.42857,57.142857 0 0 1 66.570056,49.97304" />
    <path
       style="fill:#ffffff;stroke:#000000;stroke-width:0.84235656"
       id="path3386"
       sodipodi:type="arc"
       sodipodi:cx="352.85648"
       sodipodi:cy="268.07669"
       sodipodi:rx="67.221909"
       sodipodi:ry="110.07936"
       sodipodi:start="6.249171"
       sodipodi:end="6.1615708"
       d="m 420.0395,264.33314 a 67.221909,110.07936 0 0 1 -63.42631,113.65088 67.221909,110.07936 0 0 1 -70.77521,-101.35021 67.221909,110.07936 0 0 1 60.3266,-118.08968 67.221909,110.07936 0 0 1 73.41731,96.17829"
       sodipodi:open="true" />
    <path
       style="fill:#ffffff;stroke:#000000"
       id="path3378"
       sodipodi:type="arc"
       sodipodi:cx="254.99602"
       sodipodi:cy="-211.99837"
       sodipodi:rx="98.571426"
       sodipodi:ry="84.285713"
       sodipodi:start="0"
       sodipodi:end="6.1615708"
       sodipodi:open="true"
       d="m 353.56744,-211.99837 a 98.571426,84.285713 0 0 1 -95.57496,84.24676 98.571426,84.285713 0 0 1 -101.38571,-79.12473 98.571426,84.285713 0 0 1 89.41092,-89.05738 98.571426,84.285713 0 0 1 106.82171,73.71024"
       transform="matrix(-0.00782568,0.99996938,-0.99996938,-0.00782568,0,0)" />
    <path
       style="fill:#000000;stroke:#000000;stroke-width:0.78950024"
       id="path3380"
       sodipodi:type="arc"
       sodipodi:cx="225.71465"
       sodipodi:cy="256.64987"
       sodipodi:rx="68.680084"
       sodipodi:ry="58.676308"
       sodipodi:start="0.44466255"
       sodipodi:end="6.1615708"
       d="m 287.71599,281.88968 a 68.680084,58.676308 0 0 1 -82.50056,30.7619 68.680084,58.676308 0 0 1 -47.28688,-65.43818 68.680084,58.676308 0 0 1 69.1565,-49.22815 68.680084,58.676308 0 0 1 66.80241,51.54631 l -68.17281,7.11831 z" />
    <path
       style="fill:#000000;stroke:#000000;stroke-width:0.83523089"
       id="path3380-4"
       sodipodi:type="arc"
       sodipodi:cx="368.72134"
       sodipodi:cy="266.63907"
       sodipodi:rx="45.715656"
       sodipodi:ry="98.659111"
       sodipodi:start="0.44466255"
       sodipodi:end="6.1615708"
       d="m 409.99142,309.07761 a 45.715656,98.659111 0 0 1 -54.91501,51.72347 45.715656,98.659111 0 0 1 -31.47566,-110.02862 45.715656,98.659111 0 0 1 46.03278,-82.77286 45.715656,98.659111 0 0 1 44.46582,86.67064 l -45.37801,11.96883 z" />
    <path
       style="fill:#000000;stroke:#000000;stroke-width:0.3951188"
       id="path3412"
       d="m 373.54059,383.13703 c -11.3395,0.76483 -22.7147,1.3465 -34.2652,1.70307 -17.2489,0.3985 -34.5516,0.4914 -51.8402,0.58088 -8.2735,-0.12374 -16.4132,0.22092 -24.5972,0.50811 -8.0721,0.26746 -16.15,0.48017 -24.1547,0.9159 -9.4144,0.57948 -18.9553,0.87188 -28.524,1.0538 -5.786,0.10394 -11.5817,0.12633 -17.3759,0.13109 -4.1273,-7e-5 -8.2546,-0.004 -12.3819,-0.006 -2.8834,-0.0746 -7.8948,0.23695 -10.3276,-0.36259 -0.9695,-0.23891 -1.5945,-0.58682 -2.3918,-0.88022 -0.7722,-0.49547 -1.707,-0.96978 -2.3166,-1.48642 -3.79,-3.21223 -5.6762,-6.69735 -8.027,-10.02236 -4.0984,-5.7967 -1.7663,-2.35763 -5.5072,-8.04125 -3.0524,-4.46326 -4.9412,-8.98865 -7.6239,-13.47134 -0.7073,-2.55404 -3.0326,-4.99133 -5.3603,-7.43892 -2.29481,-1.9198 -3.72171,-3.95943 -6.9017,-5.76758 0,0 26.0858,-4.60352 26.0858,-4.60352 l 0,0 c 3.0834,1.90148 4.4138,4.00698 6.7356,5.99992 2.3642,2.47395 5.2155,4.91343 5.685,7.5127 2.1457,4.56154 3.0209,9.17708 6.0177,13.70261 2.5205,4.02233 5.1213,8.04093 8.5729,11.99975 1.3193,1.51325 3.7547,4.06487 5.9471,5.60715 0.6022,0.42363 1.4842,0.80382 2.2263,1.20573 0.5539,0.14617 1.0117,0.33691 1.6618,0.43852 2.8718,0.44886 6.8326,-0.0165 9.8629,0.14948 4.1124,0.003 8.2247,0.009 12.337,0.0124 5.6595,4.4e-4 11.3212,-0.0122 16.9735,-0.11006 9.4577,-0.18526 18.8594,-0.53745 28.1704,-1.09099 8.1804,-0.40424 16.4246,-0.66668 24.6505,-0.96555 8.0009,-0.26424 15.9951,-0.36768 24.0482,-0.27159 17.199,-0.0279 34.4269,-0.10029 51.5557,-0.62667 11.8662,-0.44609 23.527,-1.15611 35.1931,-1.9526 0,0 -24.1283,5.57649 -24.1283,5.57649 z"
       inkscape:connector-curvature="0" />
    <ellipse
       style="fill:#000000;stroke:#000000"
       id="path3340"
       cx="290.00006"
       cy="346.64792"
       rx="52.857143"
       ry="54.285713" />
    <path
       style="fill:#aa4400;stroke:#000000"
       id="path3431"
       sodipodi:type="arc"
       sodipodi:cx="210.00003"
       sodipodi:cy="779.50507"
       sodipodi:rx="70"
       sodipodi:ry="72.85714"
       sodipodi:start="0"
       sodipodi:end="6.1615708"
       sodipodi:open="true"
       d="m 280.00003,779.50507 a 70,72.85714 0 0 1 -67.87207,72.82346 70,72.85714 0 0 1 -71.99856,-68.39595 70,72.85714 0 0 1 63.49472,-76.9818 70,72.85714 0 0 1 75.8589,63.71563" />
    <ellipse
       style="fill:#aa4400;stroke:#000000"
       id="path3336"
       cx="498.57141"
       cy="649.505"
       rx="275.71429"
       ry="285.71429" />
    <path
       style="fill:#0000ff;stroke:#000000;stroke-width:0.88612282"
       id="path3377"
       sodipodi:type="arc"
       sodipodi:cx="432.8576"
       sodipodi:cy="973.78992"
       sodipodi:rx="352.91443"
       sodipodi:ry="72.914474"
       sodipodi:start="0"
       sodipodi:end="6.161565"
       d="M 785.77203,973.78992 A 352.91443,72.914474 0 0 1 443.58634,1046.6707 352.91443,72.914474 0 0 1 80.595492,978.22113 352.91443,72.914474 0 0 1 400.71106,901.17856 352.91443,72.914474 0 0 1 783.16518,964.94388"
       sodipodi:open="true" />
    <path
       style="fill:#552200;stroke:#000000;stroke-width:0.86161333"
       id="path3351"
       sodipodi:type="arc"
       sodipodi:cx="669.7915"
       sodipodi:cy="1162.6489"
       sodipodi:rx="144.57076"
       sodipodi:ry="98.875854"
       sodipodi:start="0"
       sodipodi:end="6.1615708"
       sodipodi:open="true"
       d="m 814.36226,1162.6489 a 144.57076,98.875854 0 0 1 -140.17596,98.8302 144.57076,98.875854 0 0 1 -148.69836,-92.8215 144.57076,98.875854 0 0 1 131.13541,-104.4735 144.57076,98.875854 0 0 1 156.67112,86.4697"
       inkscape:transform-center-x="23.226533"
       inkscape:transform-center-y="25.842213"
       transform="matrix(0.48425879,-0.87492481,0,1,0,0)" />
    <path
       style="fill:#552200;stroke:#000000;stroke-width:0.78428012"
       id="path3353"
       sodipodi:type="arc"
       sodipodi:cx="606.3656"
       sodipodi:cy="522.09082"
       sodipodi:rx="131.93576"
       sodipodi:ry="31.454779"
       sodipodi:start="0"
       sodipodi:end="6.1615708"
       sodipodi:open="true"
       d="M 738.30136,522.09082 A 131.93576,31.454779 0 0 1 610.37631,553.53106 131.93576,31.454779 0 0 1 474.67368,524.00232 131.93576,31.454779 0 0 1 594.3483,490.76679 131.93576,31.454779 0 0 1 737.32689,518.27489"
       transform="matrix(0.89630982,0.44342836,-0.32980567,0.94404884,0,0)" />
    <path
       style="fill:#552200;stroke:#000000;stroke-width:0.78129631"
       id="path3355"
       sodipodi:type="arc"
       sodipodi:cx="528.19934"
       sodipodi:cy="811.3252"
       sodipodi:rx="71.897545"
       sodipodi:ry="55.446136"
       sodipodi:start="0"
       sodipodi:end="6.1615708"
       sodipodi:open="true"
       d="m 600.09689,811.3252 a 71.897545,55.446136 0 0 1 -69.71194,55.42051 71.897545,55.446136 0 0 1 -73.95027,-52.05106 71.897545,55.446136 0 0 1 65.21591,-58.58511 71.897545,55.446136 0 0 1 77.91527,48.48921" />
    <path
       style="fill:#ff6600;stroke:#000000"
       id="path3438"
       sodipodi:type="arc"
       sodipodi:cx="654.28577"
       sodipodi:cy="643.79077"
       sodipodi:rx="117.14286"
       sodipodi:ry="162.85715"
       sodipodi:start="0"
       sodipodi:end="6.1615708"
       sodipodi:open="true"
       d="M 771.42863,643.79077 A 117.14286,162.85715 0 0 1 657.84679,806.57265 117.14286,162.85715 0 0 1 537.35941,653.68757 117.14286,162.85715 0 0 1 643.61587,481.61059 117.14286,162.85715 0 0 1 770.56342,624.03377" />
    <path
       sodipodi:type="spiral"
       style="fill:#0000ff;fill-rule:evenodd;stroke:#000000;stroke-width:1px;stroke-linecap:butt;stroke-linejoin:miter;stroke-opacity:1"
       id="path3440"
       sodipodi:cx="1197.1428"
       sodipodi:cy="518.07648"
       sodipodi:expansion="1"
       sodipodi:revolution="3"
       sodipodi:radius="287.13931"
       sodipodi:argument="-18.305723"
       sodipodi:t0="0"
       d="m 1197.1428,518.07648 c 12.3197,7.44914 -3.9632,20.28188 -12.3809,20.47618 -22.8117,0.52656 -33.1141,-26.32025 -28.5715,-45.2381 8.1258,-33.8396 47.5639,-47.28598 78.0953,-36.66665 44.8061,15.5843 61.7856,69.06219 44.7619,110.9524 -22.6899,55.83306 -90.6467,76.41925 -143.8096,52.85711 -66.9,-29.65056 -91.1211,-112.27107 -60.9523,-176.66669 36.5385,-77.99173 133.9178,-105.86238 209.5238,-69.04757 89.0992,43.38498 120.6283,155.57835 77.1428,242.38098 -50.2056,100.21708 -177.2482,135.41053 -275.2381,85.23803 C 974.37179,645.35298 935.50987,503.43764 992.38094,394.26689 1056.1817,271.79381 1212.9866,229.26039 1333.3334,292.83841 c 133.6077,70.58365 179.8149,242.29031 109.5237,373.80957"
       transform="matrix(0.26048306,0,0,0.42607328,362.91724,436.53362)" />
    <path
       style="fill:#000000;stroke:#000000"
       id="path3361"
       d="m 179.1627,981.75363 c 5.9313,-4.03823 11.8038,-8.20172 17.8218,-12.11853 17.6174,-11.51593 34.97951,-22.85315 55.25196,-28.0006 6.09067,-1.39258 12.34508,-1.60925 18.56469,-1.73092 3.15177,-0.17532 6.3955,0.47764 9.46603,-0.55286 0.80111,-0.26886 1.47667,-0.82623 2.24669,-1.17428 2.89692,-1.30941 2.81465,-1.03655 6.31477,-1.63868 11.77007,-1.45562 23.64976,-1.742 35.49383,-2.0783 9.30741,-0.52513 18.51877,-0.19265 27.76701,0.81899 8.77622,1.05214 17.60048,1.51057 26.43123,1.73989 6.94826,1.00914 13.87769,2.06433 20.88339,2.57812 5.90462,0.49309 11.84609,-0.0756 17.69263,0.90315 7.38262,1.34016 14.87432,1.81987 22.35855,2.13133 9.86965,0.11768 19.75403,1.04051 29.49541,2.62864 10.17494,1.78433 20.48178,2.59896 30.79051,3.06989 8.27103,-0.23269 16.35815,0.90502 24.4948,2.25511 13.56605,3.33079 27.37603,5.53163 41.01213,8.51112 11.05301,3.06732 22.07679,5.86907 32.85549,9.82307 16.61045,6.1884 33.8022,10.38419 50.89706,14.95125 13.38184,3.29819 26.83897,6.29517 40.30184,9.24622 0,0 -33.86242,23.44706 -33.86242,23.44706 l 0,0 c -13.27408,-3.2244 -26.54859,-6.442 -39.81217,-9.7084 -17.47174,-4.3303 -35.04375,-8.30091 -51.92063,-14.68551 -10.76228,-3.64309 -21.83108,-6.11339 -32.73706,-9.28234 -13.55182,-2.98122 -27.16283,-5.81137 -40.81484,-8.26429 -8.16999,-0.95553 -16.33415,-1.5669 -24.55765,-1.79144 -10.32127,-0.74227 -20.61971,-1.83417 -30.83775,-3.48808 -9.76393,-1.28628 -19.57319,-2.05524 -29.42447,-2.1608 -7.59687,-0.37939 -15.14954,-1.15469 -22.67898,-2.24184 -5.88455,-0.31063 -11.79025,-0.20681 -17.66028,-0.80725 -6.87401,-0.71325 -13.67217,-1.99791 -20.56475,-2.5195 -8.85294,-0.35535 -17.68561,-0.9791 -26.48542,-2.03633 -9.10489,-0.79365 -18.21637,-0.66492 -27.34916,-0.48134 -11.77852,0.27509 -23.68161,0.50463 -35.24041,2.99691 -6.5012,2.04529 -11.74137,3.24042 -18.68921,2.77534 -6.02387,0.26445 -12.064,0.75198 -17.87112,2.49645 -3.3013,1.02949 -6.6182,2.09034 -9.8214,3.40203 -1.0327,0.42289 -4.0106,1.94823 -3.0505,1.3794 5.7181,-3.38775 46.91036,-27.15551 30.45189,-17.65806 -6.29697,3.2904 -11.53931,8.14704 -17.83559,11.4627 0,0 -39.3779,15.80268 -39.3779,15.80268 z"
       inkscape:connector-curvature="0" />
    <rect
       style="fill:#000000;stroke:#000000;stroke-width:0.57505107"
       id="rect3363"
       width="104.32809"
       height="112.55502"
       x="121.10007"
       y="85.100601"
       transform="matrix(0.96198586,-0.27309926,0.27309926,0.96198586,0,0)" />
    <rect
       style="fill:#000000;stroke:#000000;stroke-width:0.57505107"
       id="rect3365"
       width="248.99635"
       height="13.584226"
       x="48.765984"
       y="197.65562"
       transform="matrix(0.96198586,-0.27309926,0.27309926,0.96198586,0,0)" />
    <path
       style="fill:#ff6600;stroke:#000000;stroke-width:2.85714293"
       d="m 508.42857,865.60848 c -16.0034,-4.18297 -29.83664,-12.34968 -40.02997,-23.63248 -5.59033,-6.18783 -9.57037,-12.21149 -8.84454,-13.38592 0.72583,-1.17443 -1.91982,-2.40343 -5.87923,-2.73111 -13.21914,-1.09406 -59.18024,-17.92954 -91.05137,-33.35203 -32.37898,-15.66823 -83.56165,-48.004 -85.9869,-54.32411 -0.74934,-1.95275 -4.52433,-3.20335 -8.38887,-2.77912 -6.83448,0.75023 -12.67626,-5.32383 -12.67626,-13.18031 0,-2.45406 1.3856,-2.33212 5,0.43997 2.75,2.10917 2.10714,0.57657 -1.42857,-3.40572 -7.78367,-8.7668 -8.5616,-19.63317 -1.42857,-19.95497 2.98696,-0.13485 3.56212,-0.80574 1.42857,-1.66665 -12.16799,-4.9099 12.73257,-104.05552 44.37321,-176.6792 17.84568,-40.96058 35.49688,-70.75531 52.71828,-88.98698 16.452,-17.41713 23.22729,-19.97996 31.34912,-11.85813 5.47523,5.47524 5.7664,8.22272 4.29226,40.50225 -1.167,25.55409 -3.88136,43.39911 -10.35808,68.09728 -14.1771,54.06265 -41.38614,121.70074 -63.25336,157.2395 -4.84538,7.87475 -7.7549,15.17748 -6.46561,16.2283 1.2893,1.05083 9.41561,4.25949 18.05847,7.13035 27.05915,8.98814 77.83844,34.6946 106.84763,54.09048 l 27.85875,18.62666 12.52096,-9.55746 c 17.74387,-13.5442 29.5436,-16.68403 57.23728,-15.23048 20.03395,1.05151 25.85809,2.55745 37.22469,9.62525 17.10857,10.63812 23.99417,19.97923 27.14014,36.81866 4.3846,23.46977 -8.7308,44.46889 -34.77028,55.67077 -15.42703,6.63655 -42.39691,9.67689 -55.48775,6.2552 z m -50.84076,-61.08023 c -0.68101,-3.53571 -1.2382,-0.64285 -1.2382,6.42858 0,7.07142 0.55719,9.96428 1.2382,6.42857 0.68101,-3.53572 0.68101,-9.32143 0,-12.85715 z m 4.78807,-12.29125 c 0.9757,-2.54263 0.49671,-3.68949 -1.12289,-2.68852 -1.55343,0.96006 -2.82442,2.95543 -2.82442,4.43412 0,4.1098 2.04791,3.20417 3.94731,-1.7456 z M 303.36905,700.6592 c -0.9494,-0.9494 -3.41369,-1.05089 -5.47619,-0.22543 -2.27924,0.91206 -1.60222,1.58908 1.72619,1.72617 3.0119,0.124 4.6994,-0.5512 3.75,-1.50063 l 0,-1.1e-4 z m -12.79762,-3.02317 c -1.96428,-0.7926 -5.17857,-0.7926 -7.14286,0 -1.96428,0.7926 -0.35714,1.44111 3.57143,1.44111 3.92857,0 5.53572,-0.64851 3.57143,-1.44111 z m -15.77381,-2.69111 c -0.9494,-0.9494 -3.41369,-1.05091 -5.47619,-0.22556 -2.27923,0.91207 -1.60222,1.58909 1.72619,1.72619 3.01191,0.12406 4.69941,-0.55122 3.75,-1.50063 z"
       id="path3367"
       inkscape:connector-curvature="0" />
    <path
       style="fill:#ff6600;stroke:#000000;stroke-width:2.85714293"
       d=""
       id="path3369"
       inkscape:connector-curvature="0" />
    <path
       style="fill:#ff6600;stroke:#000000;stroke-width:2.85714293"
       d=""
       id="path3372"
       inkscape:connector-curvature="0" />
    <path
       style="fill:#ff6600;stroke:#000000;stroke-width:2.85714293"
       d="m 503.27997,861.2784 c -15.07048,-5.59943 -30.92415,-17.14243 -37.70854,-27.45546 -3.856,-5.86157 -9.43085,-9.61449 -17.14286,-11.54034 -21.08226,-5.26472 -59.75808,-20.43135 -88.57142,-34.73306 -29.69737,-14.74049 -81.42858,-47.41391 -81.42858,-51.43029 0,-1.26791 -3.05685,-2.30528 -6.79301,-2.30528 -7.5506,0 -15.72561,-7.25569 -10.23653,-9.0854 2.14039,-0.71346 1.46654,-4.15406 -2.0236,-10.33226 -3.31803,-5.87354 -4.18717,-10.02677 -2.37543,-11.35106 1.57143,-1.14863 2.94378,-10.44557 3.04966,-20.65985 0.4262,-41.11483 35.90527,-147.79068 68.63862,-206.37753 14.47905,-25.91493 36.93385,-53.16778 45.59918,-55.34264 11.97647,-3.0059 15.57163,2.92132 15.55284,25.64144 -0.0486,58.79502 -28.71466,155.1927 -67.36041,226.51851 -6.94251,12.81331 -12.62274,25.14591 -12.62274,27.40576 0,2.45729 8.32607,7.3372 20.71428,12.14063 31.90452,12.37074 77.95504,36.16668 107.0747,55.32931 l 26.36041,17.34686 16.94601,-11.69369 c 14.87313,-10.26328 19.38605,-11.86828 36.89336,-13.12094 28.46238,-2.03646 46.37124,2.99049 62.42104,17.52129 11.72185,10.61248 13.31802,13.53403 14.58217,26.69043 1.92894,20.0748 -0.41166,27.42054 -12.46795,39.12945 -17.28617,16.78815 -57.40153,25.7666 -79.1012,17.70412 z m -42.40478,-51.59689 c -0.4666,-5.41571 0.0777,-10.77286 1.20966,-11.90477 1.1319,-1.13191 2.05801,-3.87943 2.05801,-6.10563 0,-5.226 -7.05893,-2.94854 -7.40414,2.38883 -0.14372,2.22186 -1.22903,7.50237 -2.41184,11.73449 -2.2584,8.08065 -0.41052,13.73382 4.48922,13.73382 1.59909,0 2.52568,-4.43102 2.05909,-9.84674 z M 305.00806,700.99595 c 0.30986,-1.5499 -1.68663,-3.25132 -4.43663,-3.78092 -3.12744,-0.60229 -5,0.79906 -5,3.7418 0,4.97082 8.4437,5.00582 9.43663,0.0391 z m -12.29377,-3.10576 c 0,-2.66069 -1.94392,-4.11821 -4.76324,-3.57143 -7.16791,1.39014 -8.15213,8.06664 -1.18914,8.06664 3.50953,0 5.95238,-1.84483 5.95238,-4.49521 z m -16.27766,-2.60852 c 0.30986,-1.54991 -1.68663,-3.25133 -4.43663,-3.78093 -3.12744,-0.60229 -5,0.79906 -5,3.7418 0,4.97083 8.44371,5.00584 9.43663,0.0391 z"
       id="path3374"
       inkscape:connector-curvature="0" />
    <path
       style="fill:#aa4400;stroke:#000000;stroke-width:2.85714293"
       d="m 441.28572,817.64097 c -21.98659,-7.36774 -62.31373,-23.66706 -78.33378,-31.66074 -23.59185,-11.77186 -66.82175,-38.23232 -78.45599,-48.02189 -4.57646,-3.85083 -10.42559,-7.00151 -12.99806,-7.00151 -2.57248,0 -5.0848,-1.60715 -5.58295,-3.57143 -0.49815,-1.96429 -2.15887,-7.44317 -3.69049,-12.17529 -6.14154,-18.975 6.53402,-82.60328 29.40958,-147.62909 20.5528,-58.42318 45.91527,-106.20007 70.63135,-133.05277 20.71672,-22.50759 26.77772,-14.92378 23.64868,29.59037 -3.65775,52.03583 -26.98231,128.30013 -59.76377,195.40963 -9.59509,19.64286 -17.58003,36.00087 -17.74432,36.35113 -0.16429,0.35027 -5.20198,-0.71701 -11.19488,-2.37173 -7.579,-2.09266 -11.80541,-2.09936 -13.88278,-0.022 -2.07738,2.07739 -4.02185,1.57083 -6.38715,-1.6639 -2.00027,-2.73554 -5.33544,-3.90804 -8.09942,-2.8474 -5.49547,2.10882 -6.34138,10.35376 -1.12745,10.98909 5.86738,0.71495 9.05406,1.45815 13.57143,3.16515 8.90393,3.36458 22.69384,4.68964 24.15757,2.32129 0.83709,-1.35445 7.63694,0.56049 15.11078,4.25537 7.47384,3.69492 29.66022,14.4248 49.30308,23.84418 27.62872,13.24885 81.20812,43.85291 88.08862,50.3154 0.52018,0.48857 -0.47103,3.53562 -2.20268,6.77125 -1.73165,3.2356 -3.44296,11.05335 -3.80291,17.37275 -0.64184,11.2682 -2.02923,12.52248 -10.65446,9.63214 z"
       id="path3376"
       inkscape:connector-curvature="0" />
    <path
       style="fill:#aa4400;stroke:#000000;stroke-width:2.85714293"
       d="m 503.81449,858.60501 c -18.70946,-6.97836 -49.08049,-33.599 -42.77708,-37.49472 1.708,-1.0556 3.23361,-6.66482 3.39025,-12.46494 0.50309,-18.62875 3.41642,-23.49495 20.36497,-34.01611 27.93315,-17.34008 66.16199,-16.36567 89.6799,2.28585 14.33963,11.37243 18.01882,18.28071 18.12984,34.04174 0.19998,28.39094 -22.09423,45.77859 -64.1738,50.0503 -8.54744,0.86769 -18.4344,-0.0972 -24.61408,-2.40212 z"
       id="path3379"
       inkscape:connector-curvature="0" />
    <path
       style="fill:#aa4400;stroke:#000000;stroke-width:2.85714293"
       d="m 568.42857,904.98025 c -11,-1.22117 -60.92091,-3.14057 -110.93536,-4.26534 l -90.93537,-2.04503 -16.36805,-10.5792 C 316.45172,866.28474 281.33217,827.71803 258.98555,787.93434 233.27212,742.15671 220.21283,673.51011 226.58926,617.64211 234.17361,551.19083 261.08574,494.40778 307,447.9801 c 64.62258,-65.3452 149.07364,-93.48082 235.40229,-78.42636 74.21834,12.94259 138.98083,55.00389 180.4046,117.16736 13.83828,20.76673 32.76454,58.02599 32.76454,64.50206 0,2.59029 -10.55014,-6.13833 -10.68206,-8.83776 -0.0383,-0.78572 -0.222,-2.96243 -0.40817,-4.83715 -0.186,-1.87471 -7.60283,-11.25508 -16.48165,-20.84526 -16.82752,-18.17574 -38.70755,-33.21423 -43.77126,-30.08468 -1.6184,1.00024 -2.94257,0.30706 -2.94257,-1.54038 0,-1.95234 -2.393,-2.73322 -5.71429,-1.86468 -3.14286,0.82188 -5.71428,0.32898 -5.71428,-1.09534 0,-1.42431 -7.07143,-2.58966 -15.71429,-2.58966 -8.64286,0 -15.71429,1.24537 -15.71429,2.76748 0,1.52211 -1.83488,2.06336 -4.07751,1.20278 -6.58031,-2.52511 -28.70986,8.82178 -43.30331,22.20372 -15.97266,14.64663 -30.29238,33.51358 -28.11286,37.0401 0.84986,1.37512 0.10774,2.50021 -1.64917,2.50021 -1.75692,0 -2.39977,1.28571 -1.42857,2.85714 0.9712,1.57143 0.32834,2.85715 -1.42858,2.85715 -1.75691,0 -2.39977,1.28571 -1.42857,2.85714 0.9712,1.57143 0.32835,2.85714 -1.42857,2.85714 -1.75691,0 -2.39977,1.28572 -1.42857,2.85714 0.9712,1.57143 0.29709,2.85715 -1.49806,2.85715 -1.79511,0 -2.73197,1.59566 -2.08188,3.54591 0.65008,1.95026 -0.62832,5.35622 -2.84089,7.56879 -2.21257,2.21258 -3.40054,6.40263 -2.63994,9.31123 0.76063,2.90859 0.0677,5.28835 -1.53994,5.28835 -1.6076,0 -2.25046,2.57143 -1.42858,5.71429 0.82189,3.14286 0.16086,5.71428 -1.46917,5.71428 -1.7912,0 -2.32157,3.95583 -1.34071,10 0.89251,5.5 0.41788,10 -1.05474,10 -1.47263,0 -2.67752,10.92858 -2.67752,24.28572 0,13.35714 1.20489,24.28571 2.67752,24.28571 1.47262,0 1.94725,4.5 1.05474,10 -0.98086,6.04417 -0.45049,10 1.34071,10 1.62992,0 2.29106,2.57143 1.46917,5.71429 -0.82188,3.14286 -0.0988,5.71428 1.60638,5.71428 1.7054,0 2.36065,1.92858 1.45614,4.28572 -0.90454,2.35714 -0.26172,4.28571 1.42857,4.28571 1.69023,0 2.33309,1.92857 1.42857,4.28572 -0.90454,2.35714 -0.26171,4.28571 1.42857,4.28571 1.69023,0 2.39669,1.7628 1.56992,3.91732 -0.82675,2.15451 0.43808,5.8586 2.81077,8.23128 2.37268,2.37269 3.51806,5.10992 2.54526,6.08269 -0.97278,0.9728 -0.19286,1.76871 1.73325,1.76871 1.92609,0 2.70735,1.28572 1.73615,2.85714 -0.9712,1.57143 -0.32835,2.85715 1.42857,2.85715 1.75691,0 2.40643,1.27494 1.44337,2.8332 -0.96306,1.55825 1.39614,5.98034 5.24263,9.82683 8.49028,8.49028 7.09637,10.93228 -3.28617,5.75702 -12.122,-6.04231 -43.5686,-8.20337 -60.44789,-4.15408 -8.15711,1.95686 -20.33322,7.7578 -27.05802,12.89094 l -12.22692,9.33303 -23.45907,-15.25994 c -28.01491,-18.22349 -83.2122,-46.60097 -108.06508,-55.55737 -9.82142,-3.5394 -17.85714,-7.43152 -17.85714,-8.64912 0,-1.21763 6.94847,-15.76591 15.44104,-32.32957 38.67243,-75.42559 64.51577,-163.95678 64.54747,-221.11951 0.0124,-22.37611 -5.19053,-32.14286 -17.12313,-32.14286 -7.77206,0 -26.85952,17.78052 -40.24104,37.48568 -41.58984,61.24375 -85.43902,189.89172 -86.10817,252.63049 -0.24751,23.20706 3.34736,31.90697 14.28059,34.56026 4.27607,1.03774 12.27467,5.38668 17.77467,9.66434 14.90921,11.59571 45.29238,29.66677 75.01938,44.61943 28.01338,14.09071 84.32698,35.32551 93.68146,35.32551 3.07168,0 5.58487,1.24097 5.58487,2.75772 0,6.20457 19.46187,24.29608 32.83635,30.52425 27.45648,12.78583 69.65434,7.36229 92.08205,-11.835 13.92243,-11.91705 19.114,-25.3536 17.25823,-44.6668 -1.12291,-11.68651 -0.59097,-13.86005 3.23995,-13.23834 2.52088,0.40914 6.08545,2.67043 7.92125,5.02512 1.8358,2.35465 4.23886,3.38017 5.34015,2.27891 1.10125,-1.10129 3.96948,-0.0351 6.3738,2.3692 2.40434,2.40431 6.75128,3.74917 9.65988,2.98857 2.90857,-0.76063 5.28834,-0.21771 5.28834,1.20672 0,1.42431 7.07143,2.58965 15.71429,2.58965 8.64286,0 15.71429,-1.16534 15.71429,-2.58965 0,-1.42432 2.57142,-1.91723 5.71428,-1.09535 3.32129,0.86855 5.71429,0.0877 5.71429,-1.86468 0,-1.84743 1.32417,-2.5406 2.94257,-1.54037 5.06371,3.12954 26.94374,-11.90895 43.77126,-30.08469 14.78434,-15.96883 17.45325,-20.24331 16.48165,-26.39669 -0.186,-1.17857 1.02326,-2.14285 2.68743,-2.14285 1.66417,0 2.23114,-1.28572 1.25994,-2.85715 -0.9712,-1.57142 -0.32834,-2.85714 1.42858,-2.85714 1.75691,0 2.39977,-1.28571 1.42857,-2.85714 -0.9712,-1.57143 -0.32835,-2.85714 1.42857,-2.85714 1.75691,0 2.39977,-1.28572 1.42857,-2.85715 -0.9712,-1.57143 -0.50391,-2.85714 1.03837,-2.85714 3.62452,0 9.92574,-18.98571 7.56757,-22.80129 -0.99017,-1.60214 -0.43874,-2.913 1.22543,-2.913 4.37932,0 3.75223,7.49332 -2.52171,30.1336 -16.7864,60.57578 -58.78426,119.96826 -109.52317,154.88532 -36.59406,25.18297 -37.88023,25.49771 -83.50078,20.43308 z"
       id="path3381"
       inkscape:connector-curvature="0" />
    <path
       style="fill:#aa4400;stroke:#000000;stroke-width:2.85714293"
       d="m 558.42857,902.28654 c -13.35714,-1.17414 -62.00166,-3.08843 -108.09894,-4.254 l -83.81322,-2.1192 -16.91908,-11.29811 c -24.70469,-16.49718 -57.45548,-50.5792 -76.75589,-79.87589 -29.59659,-44.92554 -44.0696,-96.26509 -44.15795,-156.63966 -0.0714,-48.82631 8.31675,-85.4824 29.09474,-127.14285 13.59287,-27.25408 23.81735,-41.58687 47.30675,-66.3151 36.59261,-38.52251 75.4662,-62.56403 123.96691,-76.66784 109.95668,-31.97495 237.05977,19.00074 297.09514,119.15233 15.27146,25.47598 14.49143,27.74108 -3.77888,10.97346 -9.41743,-8.64285 -20.585,-17.32143 -24.8168,-19.28571 -4.2318,-1.96429 -10.99723,-5.1219 -15.03429,-7.01692 -8.18974,-3.84434 -38.07891,-4.56373 -51.16234,-1.23142 -27.46606,6.99553 -59.22466,35.76031 -75.11135,68.03076 -18.00454,36.57242 -21.78677,53.47663 -21.46422,95.93186 0.34728,45.7122 2.51182,54.72946 23.79565,99.1298 2.97203,6.19998 5.04389,11.63246 4.60417,12.07218 -0.43971,0.43974 -8.86708,-0.49975 -18.72748,-2.08772 -27.54234,-4.43554 -49.935,0.66134 -70.60462,16.0706 l -8.86742,6.61072 -14.21402,-9.57229 c -23.76328,-16.00314 -72.1387,-41.92786 -102.33686,-54.84306 -19.13764,-8.1848 -28.31446,-13.57297 -27.79316,-16.31877 0.42805,-2.2546 9.18646,-21.58446 19.46315,-42.95523 41.55067,-86.40628 67.71175,-196.55039 54.30513,-228.63696 -21.2937,-50.96299 -96.41383,65.10071 -132.10142,204.10216 -10.78828,42.01983 -15.27263,87.19266 -9.98999,100.63357 1.77137,4.507 7.00297,9.42572 12.44346,11.69926 5.16292,2.15754 19.02998,10.3696 30.81569,18.249 40.80256,27.27874 83.87491,48.25674 133.80987,65.17092 19.7152,6.678 26.48256,10.67434 39.35124,23.2382 19.27113,18.81462 38.42681,25.47805 65.87478,22.91491 43.24157,-4.03797 71.61145,-30.3282 69.41863,-64.32989 -0.77669,-12.04314 -0.18715,-13.01142 5.11691,-8.40254 2.75,2.38966 8.85714,5.3614 13.57143,6.60392 4.71428,1.24251 10.5,2.93357 12.85714,3.75788 8.53629,2.98523 39.79532,1.55129 47.65992,-2.18628 4.42991,-2.10529 11.21088,-5.26289 15.06882,-7.01695 14.2688,-6.48737 42.15529,-35.80331 51.26878,-53.8968 6.20577,-12.3206 8.51902,-15.20403 7.45485,-9.29234 -3.1024,17.23483 -32.54028,71.45431 -51.8038,95.41366 -20.56891,25.58294 -56.31377,55.94605 -79.49525,67.52645 -15.1618,7.57412 -22.63463,8.02983 -67.29618,4.10389 z"
       id="path3383"
       inkscape:connector-curvature="0" />
    <path
       style="fill:#aa4400;stroke:#000000;stroke-width:2.85714293"
       d="m 572.31903,901.03777 c -0.7412,-0.7412 -46.91977,-2.79809 -102.61904,-4.57089 L 368.42857,893.24363 349.13842,880.36468 C 327.89459,866.1814 295.1226,832.69285 278.48938,808.17094 241.98111,754.34771 227.43091,693.04168 233.20629,617.37443 c 8.23453,-107.88632 92.06881,-207.82588 199.508,-237.8352 86.38974,-24.1299 188.64257,5.06991 255.44214,72.9453 14.24786,14.47734 41.70072,51.92564 41.70072,56.88375 0,1.06078 -6.10715,-3.2143 -13.57143,-9.50018 -21.029,-17.7091 -35.44069,-23.06101 -62.29617,-23.13424 -19.27303,-0.0526 -25.53789,1.18267 -38.57143,7.60509 -24.4214,12.0339 -48.75743,38.78099 -63.7888,70.10861 -15.7098,32.74155 -18.91503,47.885 -18.91503,89.36641 0,39.10871 3.23271,56.03663 16.03643,83.9738 5.32283,11.61417 9.67785,21.90943 9.67785,22.87834 0,0.96892 -10.481,1.28569 -23.29108,0.70394 -26.45674,-1.20145 -41.34344,2.30823 -58.37673,13.76292 l -11.66781,7.84646 -22.6179,-14.15806 c -12.43985,-7.78692 -43.11121,-24.2996 -68.15858,-36.69483 -25.04737,-12.39523 -46.7013,-23.6974 -48.11984,-25.11594 -1.53413,-1.53415 4.94958,-19.20109 16.00186,-43.60219 61.265,-135.26021 76.90389,-259.23635 30.5158,-241.91163 -40.42513,15.09772 -105.68811,155.32399 -121.3359,260.7065 -8.78702,59.17752 -10.0029,56.89672 49.3818,92.63243 44.03884,26.50109 92.76634,49.95166 127.66838,61.44166 16.0703,5.29046 22.87506,9.41928 44.19256,26.81406 28.55286,23.29871 63.45013,26.22251 98.21024,8.22831 21.53435,-11.14763 32.71506,-25.91097 35.14198,-46.40246 l 1.72611,-14.57425 13.96663,5.30688 c 8.99563,3.41809 21.42017,5.30692 34.9082,5.30692 27.96863,0 49.19537,-10.32512 72.21911,-35.1288 19.0164,-20.48655 18.44526,-17.32903 -3.70894,20.50477 -24.95211,42.61188 -80.79154,94.95825 -110.33237,103.43045 -9.48486,2.7202 -40.06874,3.63883 -42.43306,1.27452 z"
       id="path3385"
       inkscape:connector-curvature="0" />
    <path
       style="fill:#aa4400;stroke:#000000;stroke-width:2.85714293"
       d="m 303.78412,692.50285 c -1.12305,-1.12305 -9.24297,-2.31444 -34.64126,-5.08269 -6.19466,-0.67518 -6.22409,0.45137 0.90377,-34.58595 13.93524,-68.49928 52.20732,-162.09943 82.85204,-202.62714 23.63414,-31.25622 31.12752,-31.76252 31.18956,-2.10739 0.10606,50.69163 -23.71821,132.93334 -62.28247,215 -14.13919,30.0889 -15.35396,32.07085 -18.02164,29.40317 z"
       id="path3387"
       inkscape:connector-curvature="0" />
    <path
       style="fill:#ff6600;stroke:#000000;stroke-width:2.85714293"
       d="m 627.93957,799.89203 c -18.56301,-6.90212 -38.66862,-20.61658 -47.77007,-32.58495 -11.95449,-15.72012 -26.64185,-45.39827 -33.54292,-67.77883 -7.82988,-25.39271 -9.26764,-76.89824 -2.87124,-102.85714 6.88707,-27.95018 27.15079,-66.49116 43.61608,-82.95645 40.78864,-40.78864 93.69435,-40.46897 134.23567,0.8111 27.33598,27.8341 44.06736,68.99385 47.33253,116.43957 1.70288,24.74426 -2.96481,64.23633 -7.95695,67.32164 -1.45602,0.89987 -1.9046,2.83785 -0.99685,4.30662 0.90775,1.46877 -4.36745,14.95965 -11.72266,29.97974 -28.07671,57.3355 -75.62581,83.9383 -120.32359,67.3187 z m 62.37959,-59.27909 c 8.91453,-4.48684 17.30072,-14.49997 22.34669,-26.68204 4.52648,-10.92789 8.26573,-10.92432 18.74902,0.018 l 8.3411,8.70624 2.27239,-7.99195 c 5.12636,-18.02946 7.3524,-51.81167 4.77055,-72.39781 -7.20966,-57.48569 -33.85263,-94.1657 -68.3984,-94.1657 -62.45373,0 -89.51662,133.1167 -37.40754,183.99986 16.2265,15.84475 30.02755,18.22673 49.32619,8.5134 z"
       id="path3389"
       inkscape:connector-curvature="0" />
    <path
       style="fill:#ff6600;stroke:#000000;stroke-width:2.85714293"
       d="m 632.2691,798.57754 c -15.38169,-5.75083 -35.05033,-17.84151 -44.66566,-27.45683 -11.29545,-11.29546 -33.86433,-55.5142 -38.94431,-76.30281 -13.8022,-56.48225 -5.48617,-109.36778 24.75445,-157.42508 21.21386,-33.71231 47.84364,-50.30675 80.72928,-50.30675 25.75548,0 42.78231,7.86473 65.14721,30.09166 40.2608,40.01241 57.97548,119.52942 40.1413,180.18472 -12.05305,40.99324 -42.6872,82.88378 -70.32934,96.17158 -16.78063,8.06657 -42.61509,10.3592 -56.83293,5.04351 z m 62.80088,-58.19875 c 6.87627,-5.09282 13.35385,-13.33675 22.05961,-28.07495 2.73898,-4.63687 3.84587,-4.30199 13.34355,4.03709 5.69624,5.00136 11.02005,8.02025 11.83067,6.70863 4.51213,-7.30077 8.14536,-45.00406 6.79073,-70.46957 -2.42491,-45.58516 -18.20935,-81.87725 -42.63483,-98.02734 -16.84483,-11.13778 -40.00542,-11.07345 -54.72274,0.152 -25.7783,19.66207 -39.68909,53.16327 -39.96702,96.25218 -0.2098,32.52657 5.53624,54.33826 18.9466,71.92042 14.71653,19.29466 26.45755,25.98165 42.92486,24.44744 7.58134,-0.70633 17.2242,-3.83198 21.42857,-6.9459 z"
       id="path3391"
       inkscape:connector-curvature="0" />
    <path
       style="fill:#ff6600;stroke:#000000;stroke-width:2.85714293"
       d="m 633.65203,796.54648 c -4.98425,-1.52905 -17.19854,-8.23368 -27.14286,-14.89917 -14.60723,-9.79092 -20.59512,-16.31262 -31.16993,-33.94861 -7.19913,-12.00625 -16.71885,-32.57768 -21.15493,-45.71429 -7.06409,-20.91898 -8.06899,-28.14195 -8.09297,-58.17044 -0.0235,-29.36229 1.05099,-37.568 7.48221,-57.14286 13.78728,-41.96466 39.18267,-76.01695 66.2836,-88.87867 20.53711,-9.74662 49.16261,-9.54135 69.30693,0.49699 29.13014,14.51616 56.40569,52.83243 68.17282,95.76812 7.71554,28.1523 7.1031,78.08936 -1.28846,105.05859 -3.59663,11.55905 -6.99709,20.5587 -7.55656,19.99923 -0.55948,-0.55948 0.25083,-11.94546 1.8007,-25.30218 8.56493,-73.81242 -17.81379,-139.20727 -59.76175,-148.1539 -7.1292,-1.52051 -14.37584,-2.34369 -16.10365,-1.82929 -1.72781,0.51439 -6.70959,1.71814 -11.07064,2.67499 -4.36105,0.95684 -13.13949,6.44693 -19.50767,12.20019 -21.77353,19.67108 -33.99172,53.96516 -33.99172,95.40811 0,34.18718 7.45776,57.5233 24.40841,76.37651 16.19057,18.00781 27.59314,22.27035 47.07341,17.59711 13.89683,-3.3338 22.73552,-10.64147 34.62361,-28.62619 l 4.67686,-7.07532 8.77887,6.42857 c 4.82838,3.53571 10.11666,6.42857 11.75171,6.42857 5.23347,0 3.2797,4.38117 -11.05877,24.7984 -15.96756,22.737 -27.99919,33.83323 -44.76565,41.28543 -14.37619,6.38974 -39.58345,8.93526 -51.69357,5.22011 z"
       id="path3393"
       inkscape:connector-curvature="0" />
    <path
       style="fill:#aa4400;stroke:#000000;stroke-width:2.85714293"
       d="m 189.16881,847.06184 c -22.05099,-8.22191 -35.63601,-22.11151 -43.54133,-44.51758 -11.96245,-33.90518 4.25946,-72.45071 36.88434,-87.64238 15.82975,-7.37107 39.17304,-9.09818 43.66643,-3.23077 1.5043,1.96429 5.07746,12.46675 7.94036,23.33882 2.86291,10.87206 12.03538,33.20967 20.38328,49.63914 16.38865,32.25443 16.43445,33.30806 2.0297,46.69586 -18.12769,16.84794 -46.54634,23.4785 -67.36278,15.71691 z"
       id="path3395"
       inkscape:connector-curvature="0" />
    <path
       style="fill:#aa4400;stroke:#000000;stroke-width:2.85714293"
       d="m 192.04013,845.25479 c -20.4189,-6.14822 -36.14993,-21.72088 -43.77591,-43.33522 -8.38597,-23.76837 -2.4677,-51.5346 14.7669,-69.2805 13.44418,-13.84303 24.66337,-19.17087 44.07613,-20.93116 l 16.32353,-1.48016 7.83177,23.51664 c 4.30746,12.93416 13.46768,35.57719 20.35603,50.31786 6.88835,14.74067 12.52428,29.30005 12.52428,32.35417 0,7.88579 -18.92832,22.53004 -35.51857,27.47962 -15.44171,4.60691 -24.65964,4.94927 -36.58416,1.35875 z"
       id="path3397"
       inkscape:connector-curvature="0" />
    <path
       style="fill:#aa4400;stroke:#000000;stroke-width:2.85714293"
       d="m 187,840.86213 c -21.58503,-9.72671 -39.91542,-37.04607 -39.97209,-59.57382 -0.0935,-37.17722 32.68265,-70.34567 66.13414,-66.9257 8.12014,0.83017 9.29931,2.65709 20.85345,32.3085 6.73565,17.28572 15.72972,39.69167 19.98681,49.79101 9.49206,22.5185 7.95845,27.25189 -12.42377,38.34528 -18.2771,9.94765 -40.47483,12.41018 -54.57854,6.05473 z"
       id="path3399"
       inkscape:connector-curvature="0" />
    <path
       style="fill:#aa4400;stroke:#000000;stroke-width:2.85714293"
       d="m 258.42857,477.55573 c -76.93056,-12.86337 -137.51445,-86.57485 -136.92859,-166.5989 0.12493,-17.06366 4.57408,-43.95746 5.19936,-31.42858 0.45772,9.1714 12.18749,34.37903 21.95851,47.18949 l 7.5918,9.95337 -8.19625,0.0437 c -12.92447,0.069 -17.03588,3.86328 -11.19696,10.3333 2.64915,2.93548 9.8443,13.37295 15.98922,23.19438 l 11.17258,17.85714 43.63374,0.012 c 40.85137,0.0112 44.53002,0.46667 57.68939,7.14286 7.73061,3.92199 18.65918,7.10266 24.28571,7.06815 10.71598,-0.0657 32.41758,-8.51653 35.76048,-13.92546 1.13785,-1.84112 10.74363,-3.15469 23.069,-3.15469 11.61563,0 27.93261,-1.60714 36.25995,-3.57143 l 15.14064,-3.57143 -13.34768,-0.86169 -13.34767,-0.8617 12.68288,-11.69066 c 29.79187,-27.46118 41.68141,-81.16347 31.18861,-140.87166 -3.1324,-17.82453 18.71283,32.21008 23.1414,53.00336 5.00808,23.51437 3.98431,58.04778 -2.35503,79.43768 -3.58537,12.09762 -4.29026,12.66093 -25.53594,20.40668 -48.47286,17.67226 -92.64667,48.02024 -122.25085,83.98794 -8.5462,10.38324 -17.5462,18.70353 -20,18.48953 -2.45379,-0.214 -7.67572,-0.92654 -11.6043,-1.58343 z"
       id="path3401"
       inkscape:connector-curvature="0" />
    <path
       style="fill:#aa4400;stroke:#000000;stroke-width:2.85714293"
       d="M 247.31124,472.15277 C 174.64673,452.61144 121.50715,381.68572 124.7327,308.54646 l 0.83873,-19.01821 6.22464,12.85715 c 3.42355,7.07143 8.90959,16.87065 12.19119,21.77605 l 5.96654,8.9189 -8.61975,1.72395 c -4.74087,0.94818 -8.61976,3.4354 -8.61976,5.52716 0,2.09176 6.75,14.28682 15,27.10014 l 15,23.29694 41.9794,0.11414 c 38.05735,0.10349 43.86104,0.8116 62.11947,7.57936 22.69959,8.41395 31.87709,7.92275 52.0484,-2.78573 9.24038,-4.90549 19.37971,-7.08497 39.56701,-8.50502 l 27.14286,-1.90934 -15.60878,8.26747 c -25.59738,13.55811 -58.97154,39.84011 -78.98105,62.19721 -10.32955,11.54147 -20.91543,20.89987 -23.52416,20.79645 -2.60873,-0.10343 -11.67453,-2.05205 -20.1462,-4.33031 z"
       id="path3403"
       inkscape:connector-curvature="0" />
    <path
       style="fill:#aa4400;stroke:#000000;stroke-width:2.85714293"
       d="m 47.856677,317.06509 c -30.247009,-10.45127 -50.5712369,-31.46096 -59.491152,-61.49758 -6.06392,-20.41943 -5.370877,-28.8436 1.18537,-14.40857 9.3406391,20.5655 33.520325,35.51217 57.449105,35.51217 41.173228,0 73.30639,-40.71583 59.92006,-75.92454 -1.61539,-4.24881 -2.41829,-8.24389 -1.78422,-8.87796 2.68344,-2.68345 45.11219,-12.90185 46.75396,-11.26008 0.98967,0.98967 -0.91709,4.69097 -4.23725,8.22512 -11.82312,12.58513 -20.57698,37.20885 -23.72338,66.7314 -6.42056,60.24414 -5.01911,56.16855 -21.21488,61.69529 -18.427882,6.28844 -36.277042,6.22491 -54.857613,-0.19525 z"
       id="path3405"
       inkscape:connector-curvature="0" />
    <path
       style="fill:#aa4400;stroke:#000000;stroke-width:2.85714293"
       d="M 47.406934,313.81558 C 22.297423,304.78291 3.9699551,287.77422 -5.7687439,264.46623 c -6.0904421,-14.57648 -5.4557891,-18.5123 1.549133,-9.60698 8.416735,10.70014 28.1067709,21.49452 42.9090799,23.5234 27.742997,3.8026 55.522271,-11.81023 67.477871,-37.9247 6.87438,-15.01563 7.55639,-24.75083 3.06835,-43.79812 -0.78815,-3.34488 12.55272,-8.51783 31.99586,-12.40646 l 9.68687,-1.93737 -5.91071,6.46327 c -13.68011,14.95897 -19.15208,32.79915 -25.30558,82.50337 -2.38694,19.28027 -5.61742,36.59435 -7.17884,38.47575 -3.71198,4.47266 -25.156139,9.79732 -38.931347,9.66679 -5.982712,-0.0567 -17.765966,-2.58101 -26.185009,-5.6096 z"
       id="path3407"
       inkscape:connector-curvature="0" />
    <path
       style="fill:#aa4400;stroke:#000000;stroke-width:2.85714293"
       d=""
       id="path3409"
       inkscape:connector-curvature="0" />
    <path
       style="fill:#0000ff;stroke:#000000;stroke-width:2.85714293"
       d=""
       id="path3411"
       inkscape:connector-curvature="0" />
    <path
       style="fill:#0000ff;stroke:#000000;stroke-width:2.85714293"
       d="m 652.11646,737.95506 c -9.84137,-5.34178 -22.94408,-24.31879 -29.49094,-42.71252 -7.00817,-19.68981 -7.18344,-62.78932 -0.34857,-85.71429 24.3654,-81.7245 95.24475,-76.19529 117.36129,9.15522 5.21775,20.13596 6.03168,70.94463 1.40351,87.61282 l -3.06923,11.05375 -9.26963,-8.98449 -9.26964,-8.98448 2.83971,-17.63298 c 2.00865,-12.47262 1.85705,-23.3634 -0.51804,-37.21387 -5.78118,-33.71323 -19.48779,-52.94642 -39.47408,-55.39024 -14.94943,-1.82793 -26.99151,6.17975 -35.6051,23.67652 -13.66415,27.75599 -6.96401,79.54794 11.57433,89.46937 13.53018,7.24112 27.6842,1.42658 36.34518,-14.93079 2.3876,-4.50929 3.62712,-4.02991 12.05009,4.6604 l 9.38873,9.68671 -5.77728,11.3244 c -9.24047,18.11283 -24.01579,29.37662 -38.3562,29.24041 -6.6239,-0.0629 -15.52675,-2.00509 -19.78413,-4.31594 z"
       id="path3413"
       inkscape:connector-curvature="0" />
    <path
       style="fill:#0000ff;stroke:#000000;stroke-width:2.85714293"
       d="m 658.42857,737.51766 c -16.84164,-6.12825 -33.75603,-35.48863 -36.78705,-63.8558 -6.95448,-65.08651 19.81539,-119.84789 58.58712,-119.84789 12.26663,0 30.96201,12.82887 40.46956,27.77042 15.56864,24.46684 19.15895,40.50032 19.15895,85.55943 0,22.25999 -1.00325,41.47752 -2.22944,42.70563 -1.22619,1.2281 -5.3176,-0.91319 -9.09201,-4.75842 -6.44002,-6.56086 -6.68133,-7.95894 -3.91908,-22.70563 3.2551,-17.37788 -0.089,-45.82892 -7.46032,-63.47095 -10.12086,-24.22264 -28.6987,-35.98044 -48.29941,-30.56842 -18.54506,5.12053 -30.66525,28.53585 -30.7629,59.43162 -0.0816,25.80898 4.57666,42.14653 14.98454,52.55441 7.28216,7.28216 9.95871,8.23605 19.05402,6.79061 6.86468,-1.09095 13.44189,-4.85536 18.72402,-10.71654 l 8.14229,-9.03486 7.26883,7.26882 7.26882,7.26882 -7.77934,13.27444 c -11.65081,19.88061 -30.11987,28.59614 -47.3286,22.33431 z"
       id="path3415"
       inkscape:connector-curvature="0" />
    <path
       style="fill:#0000ff;stroke:#000000;stroke-width:2.85714293"
       d="M 332.71429,1042.1495 C 200.50391,1033.8007 95.979368,1008.0761 83.565847,980.83141 71.116929,953.50901 137.76626,927.09244 256.15829,912.42412 381.80875,896.8565 562.351,901.19929 673.7472,922.46887 c 57.12363,10.90697 98.67072,27.72233 107.44926,43.48796 3.92854,7.05537 3.92854,8.6589 0,15.71428 -24.08626,43.25709 -246.41491,73.23839 -448.48217,60.47839 z m 341.49137,-36.1927 c 8.48909,-5.8928 15.48346,-11.52005 15.54309,-12.50491 0.0597,-0.98485 -12.40163,-4.68145 -27.69169,-8.21466 -15.29003,-3.53321 -41.32574,-10.70361 -57.85714,-15.93422 -48.37303,-15.30546 -79.34755,-20.60384 -166.59597,-28.49726 -104.25806,-9.4323 -172.0198,-7.67832 -202.54839,5.24286 -11.90727,5.03974 -57.39457,33.66444 -55.88877,35.17024 0.54077,0.54077 10.49089,-2.23346 22.11138,-6.16495 11.92886,-4.03581 37.02224,-9.00049 57.6323,-11.40243 33.9583,-3.95757 41.34166,-3.84807 105.86828,1.57016 144.53417,12.13637 125.18062,8.91908 239.36411,39.79127 22.78571,6.1607 44.39849,11.3041 48.02837,11.4297 3.62989,0.1257 13.54537,-4.5929 22.03443,-10.4858 z"
       id="path3417"
       inkscape:connector-curvature="0" />
    <path
       style="fill:#0000ff;stroke:#000000;stroke-width:2.85714293"
       d="M 348.42857,1040.4955 C 219.6282,1032.7429 118.3558,1011.2134 92,985.98131 82.565869,976.94941 82.318903,974.04623 90.139005,964.10458 118.39708,928.18026 290.62173,901.5561 464.3316,906.25825 c 134.08703,3.6296 233.01326,17.70716 284.56289,40.49431 18.33563,8.10513 32.39123,19.84795 32.39123,27.06141 0,2.55486 -3.53572,8.03016 -7.85715,12.16734 -34.33274,32.86899 -186.70691,57.13179 -350.71428,55.84489 -33,-0.2589 -66.42857,-0.8577 -74.28572,-1.3307 z m 327.82249,-33.2545 c 18.79863,-12.67236 18.98351,-15.43782 1.355,-20.26665 -8.19049,-2.24354 -34.17749,-9.50235 -57.74891,-16.13068 -59.31163,-16.67853 -69.84006,-19.06938 -105.71429,-24.00608 -60.81091,-8.36828 -129.129,-13.37233 -182.85714,-13.39361 -68.84099,-0.0273 -85.95722,3.25017 -118.74801,22.73806 -44.9548,26.71708 -45.32793,29.96547 -2.2261,19.37985 43.67653,-10.72677 76.45606,-13.45144 122.0477,-10.14474 64.58675,4.6844 137.79684,11.35352 157.49784,14.34739 14.83511,2.25442 144.36188,34.17526 155.71428,38.37456 5.79574,2.1439 17.50072,-2.014 30.67963,-10.8981 z"
       id="path3419"
       inkscape:connector-curvature="0" />
    <path
       style="fill:#0000ff;stroke:#000000;stroke-width:2.85714293"
       d="m 324.14286,1036.2722 c -107.61333,-8.0269 -202.86856,-29.1687 -228.742606,-50.7693 -9.331323,-7.79013 -9.566728,-8.45645 -5.603732,-15.86137 12.136108,-22.67654 84.676308,-43.23163 191.489198,-54.26065 156.0756,-16.11567 374.51977,-1.82904 456.71863,29.87019 21.09614,8.13553 40.42422,21.8503 40.42422,28.6841 0,6.26006 -17.46245,19.58798 -33.70888,25.72772 -18.71712,7.07341 -61.70683,18.33441 -80.57683,21.10671 l -12.85714,1.8889 11.95714,-5.628 c 15.90143,-7.4845 29.47143,-17.71777 29.47143,-22.22475 0,-5.71092 -5.93414,-7.8586 -72.85714,-26.36832 C 530.41646,943.6997 468.69852,935.1225 356.98646,931.9052 c -73.41105,-2.11424 -102.30336,0.89333 -128.55789,13.38236 -22.04822,10.48812 -52.85714,30.40973 -52.85714,34.17839 0,4.516 14.5261,3.48308 42.03222,-2.98883 47.22034,-11.11046 92.1604,-11.36913 205.11064,-1.18059 28.28571,2.55148 64.28571,7.18682 80,10.30076 37.47803,7.42664 142.2156,33.85621 145.14268,36.62551 2.94846,2.7894 -66.46502,10.8025 -125.14268,14.4464 -53.30443,3.3101 -151.5024,3.1138 -198.57143,-0.397 z"
       id="path3421"
       inkscape:connector-curvature="0" />
    <path
       style="fill:#ffffff;stroke:#000000;stroke-width:2.85714293"
       d="m 189.52081,349.86946 c -25.98996,-9.28752 -39.3833,-22.39521 -53.02117,-51.89033 -14.34981,-31.03486 -9.86642,-73.12981 11.02288,-103.4947 10.91771,-15.8701 17.54607,-19.94355 45.83529,-28.16804 22.10808,-6.42745 24.32169,-6.58078 37.9228,-2.62683 18.00002,5.23275 36.27784,20.60667 47.25685,39.74891 10.75053,18.74388 10.78933,24.57042 0.0924,13.87348 -12.48169,-12.48169 -27.97146,-18.80079 -49.26735,-20.09878 -15.80842,-0.96352 -21.6665,0.0388 -34.28571,5.86616 -26.09524,12.05045 -39.50537,30.14793 -39.50537,53.31402 0,14.85018 3.34321,23.09271 14.53809,35.84297 14.39881,16.39933 29.06497,22.68497 53.33465,22.85823 17.3129,0.1236 20.42394,0.85442 18.87377,4.4337 -1.02086,2.35715 -3.41357,10.0455 -5.31714,17.08523 -2.57694,9.53002 -5.20857,13.28886 -10.30234,14.7152 -11.05122,3.09453 -26.08589,2.50442 -37.17765,-1.45922 z"
       id="path3423"
       inkscape:connector-curvature="0" />
    <path
       style="fill:#ffffff;stroke:#000000;stroke-width:2.85714293"
       d="m 187.92637,346.27815 c -26.15181,-9.26664 -48.93466,-39.05749 -55.16878,-72.1387 -5.45386,-28.94079 6.0852,-68.70396 25.27189,-87.08598 10.53484,-10.09302 42.34771,-21.81093 59.21431,-21.81093 7.09332,0 17.72977,2.49406 23.76308,5.57203 14.33686,7.31412 44.06616,40.14226 36.353,40.14226 -0.58779,0 -6.81783,-3.21325 -13.84454,-7.14056 -15.30748,-8.55551 -41.69422,-11.94254 -58.21421,-7.47244 -26.02988,7.04337 -48.08126,28.81248 -51.36456,50.70708 -2.85811,19.05927 0.60134,30.49868 13.73576,45.42017 14.91137,16.94021 30.03375,24.05521 51.30192,24.13728 8.94297,0.0345 17.11563,1.44727 18.16146,3.13945 3.38947,5.48428 -7.00325,27.60999 -13.82827,29.43988 -10.00993,2.6838 -22.49281,1.65728 -35.38106,-2.90954 z"
       id="path3425"
       inkscape:connector-curvature="0" />
    <path
       style="fill:#ffffff;stroke:#000000;stroke-width:2.85714293"
       d=""
       id="path3427"
       inkscape:connector-curvature="0" />
    <path
       style="fill:#ffffff;stroke:#000000;stroke-width:2.85714293"
       d="m 312.71429,296.32542 c -5.5,-2.94784 -12.78922,-5.36171 -16.19827,-5.36415 -5.7875,-0.004 -6.00065,-0.71448 -3.21632,-10.71873 1.70778,-6.13613 2.25048,-21.15182 1.2701,-35.14128 -1.5977,-22.79811 -1.16611,-25.58097 6.47211,-41.73199 14.67913,-31.039 36.96463,-46.83197 59.71575,-42.31848 l 10.52806,2.08862 -8.83571,3.73328 c -14.12768,5.96926 -26.09066,22.10127 -33.22758,44.80722 -5.29174,16.83555 -6.50814,27.24712 -6.50814,55.70549 l 0,34.64987 c 0,-0.19257 -4.5,-2.762 -10,-5.70985 z"
       id="path3429"
       inkscape:connector-curvature="0" />
    <path
       style="fill:#ffffff;stroke:#000000;stroke-width:2.85714293"
       d="m 306.95639,291.62813 -10.04362,-4.49412 0.23028,-34.77264 c 0.24701,-37.29921 2.88611,-46.25042 20.5122,-69.57268 7.43848,-9.84235 26.16664,-20.22883 36.67664,-20.34054 4.93349,-0.0524 3.7436,2.17792 -7.24282,13.57614 -19.26453,19.98661 -25.80335,41.88656 -25.80335,86.4211 0,18.82415 -0.96429,34.10223 -2.14286,33.9513 -1.17857,-0.15094 -6.66248,-2.29679 -12.18647,-4.76856 z"
       id="path3432"
       inkscape:connector-curvature="0" />
    <path
       style="fill:#aa4400;stroke:#000000;stroke-width:2.85714293"
       d="m 381.4377,166.85424 c -3.79805,-4.57637 -57.33588,-22.63195 -77.29484,-26.06759 l -12.85714,-2.21318 12.05637,-3.60189 c 8.86662,-2.64895 14.91008,-2.81395 22.84259,-0.62368 22.94992,6.33678 53.76786,-2.30153 69.77486,-19.55798 22.62865,-24.39496 22.48089,-55.019557 -0.37282,-77.272071 -23.62406,-23.002603 -51.89616,-26.362215 -90.01529,-10.696639 -5.17129,2.125213 -5.3252,1.870442 -1.61971,-2.681119 14.20098,-17.4434434 55.94734,-23.3785113 78.76257,-11.197651 15.71548,8.390362 31.31217,25.2563 39.1168,42.3001 9.28796,20.283072 9.29,56.85137 0.004,77.14286 -6.66612,14.56708 -27.60884,38.57143 -33.65186,38.57143 -1.83755,0 -4.87317,-1.84617 -6.74584,-4.10259 z"
       id="path3434"
       inkscape:connector-curvature="0" />
    <path
       style="fill:#aa4400;stroke:#000000;stroke-width:2.85714293"
       d="m 379.94339,163.66317 c -4.83123,-3.65238 -54.388,-20.90863 -71.51482,-24.9023 -3.14285,-0.73285 7.78572,-1.23184 24.28572,-1.10886 25.90519,0.19309 31.86308,-0.68652 43.64955,-6.4443 C 399.049,120.12583 415.50209,96.292663 415.5555,74.436486 415.5988,56.725403 397.90139,32.478483 377.11672,21.772103 365.20658,15.637078 345.29843,13.929368 325.57143,17.350575 l -11.42857,1.98203 10,-4.642923 c 5.88296,-2.731411 17.71749,-4.6977621 28.74523,-4.7761241 22.25534,-0.1581449 39.50538,8.3153091 53.88238,26.4677511 14.44556,18.239003 18.34354,30.443369 18.34354,57.43266 0,28.000121 -3.28008,37.427231 -20.62794,59.285711 -12.68456,15.98269 -15.67298,17.26895 -24.54268,10.56349 z"
       id="path3436"
       inkscape:connector-curvature="0" />
    <path
       style="fill:#aa4400;stroke:#000000;stroke-width:2.85714293"
       d="m 89.074114,175.47568 c -18.67198,-16.50049 -48.352708,-20.35395 -70.742386,-9.1845 -12.6198189,6.29559 -13.5978779,4.21231 -2.123779,-4.52368 21.584657,-16.43384 33.594859,-20.59253 59.363479,-20.55538 24.994492,0.036 39.477292,4.62574 56.906322,18.03407 l 6.90633,5.3131 -16.90633,4.75976 c -24.374507,6.86234 -24.110264,6.72552 -22.26676,11.52962 2.32945,6.07043 1.191,5.52119 -11.136876,-5.37299 z"
       id="path3439"
       inkscape:connector-curvature="0" />
    <path
       style="fill:#aa4400;stroke:#000000;stroke-width:2.85714293"
       d=""
       id="path3441"
       inkscape:connector-curvature="0" />
  </g>
</svg>
