<?xml version="1.0" encoding="UTF-8" standalone="no"?>
<!-- Created with Inkscape (http://www.inkscape.org/) -->

<svg
   xmlns:dc="http://purl.org/dc/elements/1.1/"
   xmlns:cc="http://creativecommons.org/ns#"
   xmlns:rdf="http://www.w3.org/1999/02/22-rdf-syntax-ns#"
   xmlns:svg="http://www.w3.org/2000/svg"
   xmlns="http://www.w3.org/2000/svg"
   xmlns:sodipodi="http://sodipodi.sourceforge.net/DTD/sodipodi-0.dtd"
   xmlns:inkscape="http://www.inkscape.org/namespaces/inkscape"
   width="210mm"
   height="297mm"
   viewBox="0 0 744.09448819 1052.3622047"
   id="svg2"
   version="1.1"
   inkscape:version="0.91 r13725"
   sodipodi:docname="A Maze Runner.svg">
  <defs
     id="defs4" />
  <sodipodi:namedview
     id="base"
     pagecolor="#ffffff"
     bordercolor="#666666"
     borderopacity="1.0"
     inkscape:pageopacity="0.0"
     inkscape:pageshadow="2"
     inkscape:zoom="0.35"
     inkscape:cx="375"
     inkscape:cy="520"
     inkscape:document-units="px"
     inkscape:current-layer="layer1"
     showgrid="false"
     inkscape:window-width="1366"
     inkscape:window-height="706"
     inkscape:window-x="-8"
     inkscape:window-y="-8"
     inkscape:window-maximized="1" />
  <metadata
     id="metadata7">
    <rdf:RDF>
      <cc:Work
         rdf:about="">
        <dc:format>image/svg+xml</dc:format>
        <dc:type
           rdf:resource="http://purl.org/dc/dcmitype/StillImage" />
        <dc:title></dc:title>
      </cc:Work>
    </rdf:RDF>
  </metadata>
  <g
     inkscape:label="Layer 1"
     inkscape:groupmode="layer"
     id="layer1">
    <ellipse
       style="fill:#aa4400;stroke:#000000"
       id="path3336"
       cx="350"
       cy="629.50507"
       rx="275.71429"
       ry="285.71429" />
    <ellipse
       style="fill:#aa4400;stroke:#000000"
       id="path3338"
       cx="262.85715"
       cy="290.93362"
       rx="162.85715"
       ry="170" />
    <ellipse
       style="fill:#000000;stroke:#000000"
       id="path3340"
       cx="418.57144"
       cy="289.50507"
       rx="52.857143"
       ry="54.285713" />
    <path
       style="fill:#0000ff;stroke:#000000;stroke-width:0.7048378"
       id="path3377"
       sodipodi:type="arc"
       sodipodi:cx="537.14172"
       sodipodi:cy="885.21851"
       sodipodi:rx="223.00591"
       sodipodi:ry="73.005798"
       sodipodi:start="0"
       sodipodi:end="6.161565"
       d="m 760.14763,885.21851 a 223.00591,73.005798 0 0 1 -216.22644,72.97205 223.00591,73.005798 0 0 1 -229.37317,-68.5353 223.00591,73.005798 0 0 1 202.28036,-77.13905 223.00591,73.005798 0 0 1 241.67198,63.84518"
       sodipodi:open="true" />
    <path
       style="fill:#552200;stroke:#000000"
       id="path3395"
       sodipodi:type="arc"
       sodipodi:cx="327.14285"
       sodipodi:cy="715.21936"
       sodipodi:rx="158.57143"
       sodipodi:ry="54.285713"
       sodipodi:start="0"
       sodipodi:end="6.1615708"
       sodipodi:open="true"
       d="M 485.71428,715.21936 A 158.57143,54.285713 0 0 1 331.96326,769.47999 158.57143,54.285713 0 0 1 168.8645,718.51829 158.57143,54.285713 0 0 1 312.69946,661.1593 158.57143,54.285713 0 0 1 484.54308,708.63369" />
    <path
       style="fill:#552200;stroke:#000000"
       id="path3397"
       sodipodi:type="arc"
       sodipodi:cx="208.57144"
       sodipodi:cy="618.07648"
       sodipodi:rx="51.42857"
       sodipodi:ry="134.28572"
       sodipodi:start="0"
       sodipodi:end="6.1615708"
       sodipodi:open="true"
       d="M 260.00001,618.07648 A 51.42857,134.28572 0 0 1 210.13482,752.30014 51.42857,134.28572 0 0 1 157.23792,626.23699 51.42857,134.28572 0 0 1 203.8871,484.34896 51.42857,134.28572 0 0 1 259.62016,601.78561" />
  </g>
</svg>
