<?xml version="1.0" encoding="UTF-8" standalone="no"?>
<!-- Created with Inkscape (http://www.inkscape.org/) -->

<svg
   xmlns:dc="http://purl.org/dc/elements/1.1/"
   xmlns:cc="http://creativecommons.org/ns#"
   xmlns:rdf="http://www.w3.org/1999/02/22-rdf-syntax-ns#"
   xmlns:svg="http://www.w3.org/2000/svg"
   xmlns="http://www.w3.org/2000/svg"
   xmlns:sodipodi="http://sodipodi.sourceforge.net/DTD/sodipodi-0.dtd"
   xmlns:inkscape="http://www.inkscape.org/namespaces/inkscape"
   width="210mm"
   height="297mm"
   viewBox="0 0 744.09448819 1052.3622047"
   id="svg2"
   version="1.1"
   inkscape:version="0.91 r13725"
   sodipodi:docname="A Maze Runner.svg">
  <defs
     id="defs4">
    <inkscape:perspective
       sodipodi:type="inkscape:persp3d"
       inkscape:vp_x="0 : 526.1811 : 1"
       inkscape:vp_y="0 : 1000 : 0"
       inkscape:vp_z="744.09449 : 526.1811 : 1"
       inkscape:persp3d-origin="372.04724 : 350.7874 : 1"
       id="perspective3444" />
  </defs>
  <sodipodi:namedview
     id="base"
     pagecolor="#ffffff"
     bordercolor="#666666"
     borderopacity="1.0"
     inkscape:pageopacity="0.0"
     inkscape:pageshadow="2"
     inkscape:zoom="0.35"
     inkscape:cx="375"
     inkscape:cy="696.83395"
     inkscape:document-units="px"
     inkscape:current-layer="layer1"
     showgrid="false"
     inkscape:window-width="1366"
     inkscape:window-height="706"
     inkscape:window-x="-8"
     inkscape:window-y="-8"
     inkscape:window-maximized="1" />
  <metadata
     id="metadata7">
    <rdf:RDF>
      <cc:Work
         rdf:about="">
        <dc:format>image/svg+xml</dc:format>
        <dc:type
           rdf:resource="http://purl.org/dc/dcmitype/StillImage" />
        <dc:title />
      </cc:Work>
    </rdf:RDF>
  </metadata>
  <g
     inkscape:label="Layer 1"
     inkscape:groupmode="layer"
     id="layer1">
    <path
       style="fill:#aa4400;stroke:#000000"
       id="path3366"
       sodipodi:type="arc"
       sodipodi:cx="271.42859"
       sodipodi:cy="99.505066"
       sodipodi:rx="80"
       sodipodi:ry="90"
       sodipodi:start="0"
       sodipodi:end="6.1615708"
       sodipodi:open="true"
       d="M 351.42859,99.505066 A 80,90 0 0 1 273.8605,189.46347 80,90 0 0 1 191.57644,104.97435 80,90 0 0 1 264.14183,9.8791806 80,90 0 0 1 350.83771,88.586721" />
    <path
       style="fill:#aa4400;stroke:#000000"
       id="path3368"
       sodipodi:type="arc"
       sodipodi:cx="90.000023"
       sodipodi:cy="165.21935"
       sodipodi:rx="92.85714"
       sodipodi:ry="92.85714"
       sodipodi:start="0"
       sodipodi:end="6.1615708"
       sodipodi:open="true"
       d="M 182.85716,165.21935 A 92.85714,92.85714 0 0 1 92.822782,258.03357 92.85714,92.85714 0 0 1 -2.6854989,170.86225 92.85714,92.85714 0 0 1 81.54218,72.748197 92.85714,92.85714 0 0 1 182.17133,153.95439" />
    <ellipse
       style="fill:#aa4400;stroke:#000000"
       id="path3338"
       cx="245.71425"
       cy="310.93362"
       rx="162.85715"
       ry="170" />
    <path
       style="fill:#2b1100;stroke:#000000"
       id="path3371"
       sodipodi:type="arc"
       sodipodi:cx="264.28564"
       sodipodi:cy="82.362183"
       sodipodi:rx="67.14286"
       sodipodi:ry="58.57143"
       sodipodi:start="0"
       sodipodi:end="6.1615708"
       sodipodi:open="true"
       d="M 331.4285,82.362183 A 67.14286,58.57143 0 0 1 266.32672,140.90654 67.14286,58.57143 0 0 1 197.26688,85.921556 67.14286,58.57143 0 0 1 258.16997,24.034224 67.14286,58.57143 0 0 1 330.93259,75.256593" />
    <path
       style="fill:#2b1100;stroke:#000000"
       id="path3373"
       sodipodi:type="arc"
       sodipodi:cx="61.428486"
       sodipodi:cy="152.3622"
       sodipodi:rx="61.42857"
       sodipodi:ry="57.142857"
       sodipodi:start="0"
       sodipodi:end="6.1615708"
       sodipodi:open="true"
       d="M 122.85706,152.3622 A 61.42857,57.142857 0 0 1 63.295849,209.47865 61.42857,57.142857 0 0 1 0.11344783,155.83476 61.42857,57.142857 0 0 1 55.833298,95.456874 61.42857,57.142857 0 0 1 122.40335,145.42992" />
    <path
       style="fill:#ffffff;stroke:#000000;stroke-width:0.84235656"
       id="path3386"
       sodipodi:type="arc"
       sodipodi:cx="315.71362"
       sodipodi:cy="268.07669"
       sodipodi:rx="67.221909"
       sodipodi:ry="110.07936"
       sodipodi:start="6.249171"
       sodipodi:end="6.1615708"
       d="m 382.89665,264.33314 a 67.221909,110.07936 0 0 1 -63.42632,113.65088 67.221909,110.07936 0 0 1 -70.7752,-101.35021 67.221909,110.07936 0 0 1 60.3266,-118.08968 67.221909,110.07936 0 0 1 73.41731,96.17829"
       sodipodi:open="true" />
    <path
       style="fill:#ffffff;stroke:#000000"
       id="path3378"
       sodipodi:type="arc"
       sodipodi:cx="255.28668"
       sodipodi:cy="-174.85664"
       sodipodi:rx="98.571426"
       sodipodi:ry="84.285713"
       sodipodi:start="0"
       sodipodi:end="6.1615708"
       sodipodi:open="true"
       d="m 353.85811,-174.85664 a 98.571426,84.285713 0 0 1 -95.57496,84.246756 98.571426,84.285713 0 0 1 -101.38572,-79.124736 98.571426,84.285713 0 0 1 89.41093,-89.05738 98.571426,84.285713 0 0 1 106.82171,73.71024"
       transform="matrix(-0.00782568,0.99996938,-0.99996938,-0.00782568,0,0)" />
    <path
       style="fill:#000000;stroke:#000000;stroke-width:0.78950024"
       id="path3380"
       sodipodi:type="arc"
       sodipodi:cx="188.57179"
       sodipodi:cy="256.64987"
       sodipodi:rx="68.680084"
       sodipodi:ry="58.676308"
       sodipodi:start="0.44466255"
       sodipodi:end="6.1615708"
       d="m 250.57314,281.88968 a 68.680084,58.676308 0 0 1 -82.50056,30.7619 68.680084,58.676308 0 0 1 -47.28689,-65.43818 68.680084,58.676308 0 0 1 69.15651,-49.22815 68.680084,58.676308 0 0 1 66.80241,51.54631 l -68.17282,7.11831 z" />
    <path
       style="fill:#000000;stroke:#000000;stroke-width:0.83523089"
       id="path3380-4"
       sodipodi:type="arc"
       sodipodi:cx="331.57849"
       sodipodi:cy="266.63907"
       sodipodi:rx="45.715656"
       sodipodi:ry="98.659111"
       sodipodi:start="0.44466255"
       sodipodi:end="6.1615708"
       d="m 372.84857,309.07761 a 45.715656,98.659111 0 0 1 -54.91501,51.72347 45.715656,98.659111 0 0 1 -31.47566,-110.02862 45.715656,98.659111 0 0 1 46.03278,-82.77286 45.715656,98.659111 0 0 1 44.46581,86.67064 l -45.378,11.96883 z" />
    <path
       style="fill:#000000;stroke:#000000;stroke-width:0.3951188"
       id="path3412"
       d="m 336.39773,383.13703 c -11.3395,0.76483 -22.7147,1.3465 -34.2652,1.70307 -17.2489,0.3985 -34.5516,0.4914 -51.8402,0.58088 -8.2735,-0.12374 -16.4132,0.22092 -24.5972,0.50811 -8.0721,0.26746 -16.15,0.48017 -24.1547,0.9159 -9.4144,0.57948 -18.9553,0.87188 -28.524,1.0538 -5.786,0.10394 -11.5817,0.12633 -17.3759,0.13109 -4.1273,-7e-5 -8.2546,-0.004 -12.3819,-0.006 -2.8834,-0.0746 -7.8948,0.23695 -10.3276,-0.36259 -0.9695,-0.23891 -1.5945,-0.58682 -2.3918,-0.88022 -0.7722,-0.49547 -1.707,-0.96978 -2.3166,-1.48642 -3.79,-3.21223 -5.6762,-6.69735 -8.027,-10.02236 -4.0984,-5.7967 -1.7663,-2.35763 -5.5072,-8.04125 -3.0524,-4.46326 -4.9412,-8.98865 -7.6239,-13.47134 -0.7073,-2.55404 -3.0326,-4.99133 -5.3603,-7.43892 -2.294803,-1.9198 -3.721703,-3.95943 -6.901702,-5.76758 0,0 26.085802,-4.60352 26.085802,-4.60352 l 0,0 c 3.0834,1.90148 4.4138,4.00698 6.7356,5.99992 2.3642,2.47395 5.2155,4.91343 5.685,7.5127 2.1457,4.56154 3.0209,9.17708 6.0177,13.70261 2.5205,4.02233 5.1213,8.04093 8.5729,11.99975 1.3193,1.51325 3.7547,4.06487 5.9471,5.60715 0.6022,0.42363 1.4842,0.80382 2.2263,1.20573 0.5539,0.14617 1.0117,0.33691 1.6618,0.43852 2.8718,0.44886 6.8326,-0.0165 9.8629,0.14948 4.1124,0.003 8.2247,0.009 12.337,0.0124 5.6595,4.4e-4 11.3212,-0.0122 16.9735,-0.11006 9.4577,-0.18526 18.8594,-0.53745 28.1704,-1.09099 8.1804,-0.40424 16.4246,-0.66668 24.6505,-0.96555 8.0009,-0.26424 15.9951,-0.36768 24.0482,-0.27159 17.199,-0.0279 34.4269,-0.10029 51.5557,-0.62667 11.8662,-0.44609 23.527,-1.15611 35.1931,-1.9526 0,0 -24.1283,5.57649 -24.1283,5.57649 z"
       inkscape:connector-curvature="0" />
    <ellipse
       style="fill:#000000;stroke:#000000"
       id="path3340"
       cx="252.85719"
       cy="346.64792"
       rx="52.857143"
       ry="54.285713" />
    <path
       style="fill:#aa4400;stroke:#000000"
       id="path3431"
       sodipodi:type="arc"
       sodipodi:cx="172.85718"
       sodipodi:cy="779.50507"
       sodipodi:rx="70"
       sodipodi:ry="72.85714"
       sodipodi:start="0"
       sodipodi:end="6.1615708"
       sodipodi:open="true"
       d="m 242.85718,779.50507 a 70,72.85714 0 0 1 -67.87208,72.82346 70,72.85714 0 0 1 -71.99855,-68.39595 70,72.85714 0 0 1 63.49472,-76.9818 70,72.85714 0 0 1 75.85889,63.71563" />
    <ellipse
       style="fill:#aa4400;stroke:#000000"
       id="path3336"
       cx="461.42856"
       cy="649.505"
       rx="275.71429"
       ry="285.71429" />
    <path
       style="fill:#0000ff;stroke:#000000;stroke-width:0.88612282"
       id="path3377"
       sodipodi:type="arc"
       sodipodi:cx="395.71475"
       sodipodi:cy="973.78992"
       sodipodi:rx="352.91443"
       sodipodi:ry="72.914474"
       sodipodi:start="0"
       sodipodi:end="6.161565"
       d="M 748.62918,973.78992 A 352.91443,72.914474 0 0 1 406.44349,1046.6707 352.91443,72.914474 0 0 1 43.452639,978.22113 352.91443,72.914474 0 0 1 363.5682,901.17856 352.91443,72.914474 0 0 1 746.02233,964.94388"
       sodipodi:open="true" />
    <path
       style="fill:#552200;stroke:#000000;stroke-width:0.86161333"
       id="path3351"
       sodipodi:type="arc"
       sodipodi:cx="593.09106"
       sodipodi:cy="1095.5419"
       sodipodi:rx="144.57076"
       sodipodi:ry="98.875854"
       sodipodi:start="0"
       sodipodi:end="6.1615708"
       sodipodi:open="true"
       d="M 737.66182,1095.5419 A 144.57076,98.875854 0 0 1 597.48586,1194.372 144.57076,98.875854 0 0 1 448.7875,1101.5505 144.57076,98.875854 0 0 1 579.92291,997.07703 144.57076,98.875854 0 0 1 736.59403,1083.5468"
       inkscape:transform-center-x="23.226533"
       inkscape:transform-center-y="25.842213"
       transform="matrix(0.48425879,-0.87492481,0,1,0,0)" />
    <path
       style="fill:#552200;stroke:#000000;stroke-width:0.78428012"
       id="path3353"
       sodipodi:type="arc"
       sodipodi:cx="571.03259"
       sodipodi:cy="538.68707"
       sodipodi:rx="131.93576"
       sodipodi:ry="31.454779"
       sodipodi:start="0"
       sodipodi:end="6.1615708"
       sodipodi:open="true"
       d="M 702.96835,538.68707 A 131.93576,31.454779 0 0 1 575.0433,570.12731 131.93576,31.454779 0 0 1 439.34067,540.59857 131.93576,31.454779 0 0 1 559.01529,507.36305 131.93576,31.454779 0 0 1 701.99388,534.87114"
       transform="matrix(0.89630982,0.44342836,-0.32980567,0.94404884,0,0)" />
    <path
       style="fill:#552200;stroke:#000000;stroke-width:0.78129631"
       id="path3355"
       sodipodi:type="arc"
       sodipodi:cx="491.05646"
       sodipodi:cy="811.3252"
       sodipodi:rx="71.897545"
       sodipodi:ry="55.446136"
       sodipodi:start="0"
       sodipodi:end="6.1615708"
       sodipodi:open="true"
       d="m 562.954,811.3252 a 71.897545,55.446136 0 0 1 -69.71193,55.42051 71.897545,55.446136 0 0 1 -73.95028,-52.05106 71.897545,55.446136 0 0 1 65.21592,-58.58511 71.897545,55.446136 0 0 1 77.91526,48.48921" />
    <path
       style="fill:#ff6600;stroke:#000000"
       id="path3438"
       sodipodi:type="arc"
       sodipodi:cx="617.14288"
       sodipodi:cy="643.79077"
       sodipodi:rx="117.14286"
       sodipodi:ry="162.85715"
       sodipodi:start="0"
       sodipodi:end="6.1615708"
       sodipodi:open="true"
       d="M 734.28574,643.79077 A 117.14286,162.85715 0 0 1 620.7039,806.57265 117.14286,162.85715 0 0 1 500.21653,653.68757 117.14286,162.85715 0 0 1 606.47299,481.61059 117.14286,162.85715 0 0 1 733.42053,624.03377" />
    <path
       sodipodi:type="spiral"
       style="fill:#0000ff;fill-rule:evenodd;stroke:#000000;stroke-width:1px;stroke-linecap:butt;stroke-linejoin:miter;stroke-opacity:1"
       id="path3440"
       sodipodi:cx="1197.1428"
       sodipodi:cy="518.07648"
       sodipodi:expansion="1"
       sodipodi:revolution="3"
       sodipodi:radius="287.13931"
       sodipodi:argument="-18.305723"
       sodipodi:t0="0"
       d="m 1197.1428,518.07648 c 12.3197,7.44914 -3.9632,20.28188 -12.3809,20.47618 -22.8117,0.52656 -33.1141,-26.32025 -28.5715,-45.2381 8.1258,-33.8396 47.5639,-47.28598 78.0953,-36.66665 44.8061,15.5843 61.7856,69.06219 44.7619,110.9524 -22.6899,55.83306 -90.6467,76.41925 -143.8096,52.85711 -66.9,-29.65056 -91.1211,-112.27107 -60.9523,-176.66669 36.5385,-77.99173 133.9178,-105.86238 209.5238,-69.04757 89.0992,43.38498 120.6283,155.57835 77.1428,242.38098 -50.2056,100.21708 -177.2482,135.41053 -275.2381,85.23803 C 974.37179,645.35298 935.50987,503.43764 992.38094,394.26689 1056.1817,271.79381 1212.9866,229.26039 1333.3334,292.83841 c 133.6077,70.58365 179.8149,242.29031 109.5237,373.80957"
       transform="matrix(0.26048306,0,0,0.42607328,325.77438,436.53362)" />
  </g>
</svg>
