<?xml version="1.0" encoding="UTF-8" standalone="no"?>
<!-- Created with Inkscape (http://www.inkscape.org/) -->

<svg
   xmlns:dc="http://purl.org/dc/elements/1.1/"
   xmlns:cc="http://creativecommons.org/ns#"
   xmlns:rdf="http://www.w3.org/1999/02/22-rdf-syntax-ns#"
   xmlns:svg="http://www.w3.org/2000/svg"
   xmlns="http://www.w3.org/2000/svg"
   xmlns:sodipodi="http://sodipodi.sourceforge.net/DTD/sodipodi-0.dtd"
   xmlns:inkscape="http://www.inkscape.org/namespaces/inkscape"
   width="210mm"
   height="297mm"
   viewBox="0 0 744.09448819 1052.3622047"
   id="svg3346"
   version="1.1"
   inkscape:version="0.91 r13725"
   sodipodi:docname="Runner.svg">
  <defs
     id="defs3348">
    <inkscape:perspective
       sodipodi:type="inkscape:persp3d"
       inkscape:vp_x="0 : 526.1811 : 1"
       inkscape:vp_y="0 : 1000 : 0"
       inkscape:vp_z="744.09449 : 526.1811 : 1"
       inkscape:persp3d-origin="372.04724 : 350.7874 : 1"
       id="perspective3513" />
  </defs>
  <sodipodi:namedview
     id="base"
     pagecolor="#ffffff"
     bordercolor="#666666"
     borderopacity="1.0"
     inkscape:pageopacity="0.0"
     inkscape:pageshadow="2"
     inkscape:zoom="0.35"
     inkscape:cx="375"
     inkscape:cy="494.10729"
     inkscape:document-units="px"
     inkscape:current-layer="layer1"
     showgrid="false"
     inkscape:window-width="1366"
     inkscape:window-height="706"
     inkscape:window-x="-8"
     inkscape:window-y="-8"
     inkscape:window-maximized="1"
     inkscape:snap-page="true" />
  <metadata
     id="metadata3351">
    <rdf:RDF>
      <cc:Work
         rdf:about="">
        <dc:format>image/svg+xml</dc:format>
        <dc:type
           rdf:resource="http://purl.org/dc/dcmitype/StillImage" />
        <dc:title />
      </cc:Work>
    </rdf:RDF>
  </metadata>
  <g
     inkscape:label="Layer 1"
     inkscape:groupmode="layer"
     id="layer1">
    <rect
       style="fill:#552200;stroke:#000000"
       id="rect3342"
       width="502.85715"
       height="65.714287"
       x="142.85716"
       y="769.505" />
    <path
       style="fill:#552200;stroke:#000000"
       id="path3344"
       sodipodi:type="arc"
       sodipodi:cx="102.85712"
       sodipodi:cy="783.79071"
       sodipodi:rx="68.571426"
       sodipodi:ry="68.571426"
       sodipodi:start="0"
       sodipodi:end="6.1615708"
       sodipodi:open="true"
       d="m 171.42854,783.79071 a 68.571426,68.571426 0 0 1 -66.48692,68.53974 68.571426,68.571426 0 0 1 -70.529197,-64.37267 68.571426,68.571426 0 0 1 62.198902,-72.45346 68.571426,68.571426 0 0 1 74.310755,59.96765" />
    <path
       style="fill:#552200;stroke:#000000"
       id="path3344-2"
       sodipodi:type="arc"
       sodipodi:cx="668.57251"
       sodipodi:cy="780.9353"
       sodipodi:rx="68.571426"
       sodipodi:ry="68.571426"
       sodipodi:start="0"
       sodipodi:end="6.1615708"
       sodipodi:open="true"
       d="m 737.14394,780.9353 a 68.571426,68.571426 0 0 1 -66.48693,68.53974 68.571426,68.571426 0 0 1 -70.52919,-64.37267 68.571426,68.571426 0 0 1 62.1989,-72.45345 68.571426,68.571426 0 0 1 74.31075,59.96764" />
    <path
       style="fill:#000000;stroke:#000000"
       id="path3361"
       sodipodi:type="arc"
       sodipodi:cx="582.85724"
       sodipodi:cy="935.2193"
       sodipodi:rx="122.85714"
       sodipodi:ry="114.28571"
       sodipodi:start="0"
       sodipodi:end="6.1615708"
       sodipodi:open="true"
       d="M 705.71438,935.2193 A 122.85714,114.28571 0 0 1 586.59197,1049.4522 122.85714,114.28571 0 0 1 460.22716,942.16442 122.85714,114.28571 0 0 1 571.66686,821.40865 122.85714,114.28571 0 0 1 704.80696,921.35473" />
    <path
       style="fill:#000000;stroke:#000000"
       id="path3361-0"
       sodipodi:type="arc"
       sodipodi:cx="194.28752"
       sodipodi:cy="938.07935"
       sodipodi:rx="122.85714"
       sodipodi:ry="114.28571"
       sodipodi:start="0"
       sodipodi:end="6.1615708"
       sodipodi:open="true"
       d="M 317.14466,938.07935 A 122.85714,114.28571 0 0 1 198.02225,1052.3122 122.85714,114.28571 0 0 1 71.657445,945.02446 122.85714,114.28571 0 0 1 183.09714,824.2687 122.85714,114.28571 0 0 1 316.23725,924.21478" />
    <path
       style="fill:#0000ff;stroke:#000000"
       id="path3378"
       sodipodi:type="arc"
       sodipodi:cx="290.07144"
       sodipodi:cy="731.83099"
       sodipodi:rx="85.714287"
       sodipodi:ry="75.714287"
       sodipodi:start="2.7245868"
       sodipodi:end="0.37660535"
       d="m 211.70238,762.49715 a 85.714287,75.714287 0 0 1 24.73503,-89.72628 85.714287,75.714287 0 0 1 104.52384,-1.86533 85.714287,75.714287 0 0 1 28.81749,88.77058"
       sodipodi:open="true"
       transform="matrix(0.99927476,0.03807831,-0.03807831,0.99927476,0,0)" />
    <path
       style="fill:#0000ff;stroke:#000000"
       id="path3378-7"
       sodipodi:type="arc"
       sodipodi:cx="556.47375"
       sodipodi:cy="714.14142"
       sodipodi:rx="85.714287"
       sodipodi:ry="75.714287"
       sodipodi:start="2.7245868"
       sodipodi:end="0.37660535"
       d="m 478.10469,744.80758 a 85.714287,75.714287 0 0 1 24.73503,-89.72629 85.714287,75.714287 0 0 1 104.52384,-1.86533 85.714287,75.714287 0 0 1 28.81749,88.77059"
       sodipodi:open="true"
       transform="matrix(0.99858347,0.05320763,-0.05320763,0.99858347,0,0)" />
    <path
       sodipodi:type="spiral"
       style="fill:#4d4d4d;fill-rule:evenodd;stroke:#000000;stroke-width:1px;stroke-linecap:butt;stroke-linejoin:miter;stroke-opacity:1"
       id="path3395-9"
       sodipodi:cx="1182.8982"
       sodipodi:cy="740.88824"
       sodipodi:expansion="1"
       sodipodi:revolution="3"
       sodipodi:radius="137.44016"
       sodipodi:argument="-18.093561"
       sodipodi:t0="0"
       d="m 1182.8982,740.88824 c 5.0138,4.72734 -3.8987,9.09086 -7.8571,8.33334 -10.7272,-2.05284 -12.8419,-15.65343 -8.8096,-24.04762 7.213,-15.01524 27.0222,-17.33205 40.2381,-9.28572 19.395,11.80831 21.9499,38.54312 9.7619,56.42857 -16.2446,23.83849 -50.1179,26.62171 -72.619,10.23811 -28.3154,-20.6171 -31.3215,-61.71825 -10.7143,-88.80953 24.958,-32.81117 73.333,-36.03738 105,-11.19049 37.3185,29.28121 40.7634,84.9567 11.6667,121.19048 -33.5934,41.83333 -96.5864,45.49623 -137.381,12.14287 -46.3533,-37.89819 -50.2337,-108.2203 -12.6191,-153.57142 42.198,-50.87711 119.8573,-54.97472 169.762,-13.09526 55.4035,46.49413 59.7182,131.49656 13.5714,185.95238"
       transform="matrix(0.8461372,0,0,0.86937537,-423.38669,298.14847)" />
    <path
       sodipodi:type="spiral"
       style="fill:#4d4d4d;fill-rule:evenodd;stroke:#000000;stroke-width:1px;stroke-linecap:butt;stroke-linejoin:miter;stroke-opacity:1"
       id="path3395-9-7"
       sodipodi:cx="1182.8982"
       sodipodi:cy="740.88824"
       sodipodi:expansion="1"
       sodipodi:revolution="3"
       sodipodi:radius="137.44016"
       sodipodi:argument="-18.093561"
       sodipodi:t0="0"
       d="m 1182.8982,740.88824 c 5.0138,4.72734 -3.8987,9.09086 -7.8571,8.33334 -10.7272,-2.05284 -12.8419,-15.65343 -8.8096,-24.04762 7.213,-15.01524 27.0222,-17.33205 40.2381,-9.28572 19.395,11.80831 21.9499,38.54312 9.7619,56.42857 -16.2446,23.83849 -50.1179,26.62171 -72.619,10.23811 -28.3154,-20.6171 -31.3215,-61.71825 -10.7143,-88.80953 24.958,-32.81117 73.333,-36.03738 105,-11.19049 37.3185,29.28121 40.7634,84.9567 11.6667,121.19048 -33.5934,41.83333 -96.5864,45.49623 -137.381,12.14287 -46.3533,-37.89819 -50.2337,-108.2203 -12.6191,-153.57142 42.198,-50.87711 119.8573,-54.97472 169.762,-13.09526 55.4035,46.49413 59.7182,131.49656 13.5714,185.95238"
       transform="matrix(0.8461372,0,0,0.86937537,-819.10106,301.00561)" />
    <path
       sodipodi:type="star"
       style="fill:#ffff00;stroke:#000000"
       id="path3433"
       sodipodi:sides="5"
       sodipodi:cx="-797.14288"
       sodipodi:cy="463.79077"
       sodipodi:r1="309.31128"
       sodipodi:r2="154.65564"
       sodipodi:arg1="1.3661545"
       sodipodi:arg2="1.994473"
       inkscape:flatsided="false"
       inkscape:rounded="0"
       inkscape:randomized="0"
       d="m -734.28574,766.64791 -126.43837,-161.8756 -205.02909,12.38716 114.88123,-170.27235 -75.13833,-191.16642 197.43884,56.6415 158.59104,-130.5345 7.1427,205.27872 173.15302,110.49165 -193.02445,70.22773 z"
       inkscape:transform-center-x="-12.131035"
       inkscape:transform-center-y="7.244612"
       transform="matrix(0.62454095,0,0,0.6934614,850.88217,21.098177)" />
    <path
       style="fill:#00ff00;stroke:#000000"
       id="path3354"
       sodipodi:type="arc"
       sodipodi:cx="481.42856"
       sodipodi:cy="455.21936"
       sodipodi:rx="184.28572"
       sodipodi:ry="180"
       sodipodi:start="0"
       sodipodi:end="6.1615708"
       sodipodi:open="true"
       d="M 665.71428,455.21936 A 184.28572,180 0 0 1 487.03065,635.13617 184.28572,180 0 0 1 297.48343,466.15792 184.28572,180 0 0 1 464.64299,275.96759 184.28572,180 0 0 1 664.35316,433.38267" />
    <path
       style="fill:#000000;stroke:#000000;stroke-width:0.73100638"
       id="path3431"
       d="m 630.30936,541.77818 c -7.86352,2.45925 -15.83571,4.24729 -23.88248,5.87822 -5.62506,1.08852 -11.1883,2.4959 -16.72684,3.99696 -5.08273,1.41001 -10.1425,2.90229 -15.20474,4.38382 -5.54283,1.93898 -11.28432,2.78121 -17.00339,3.89127 -5.84832,1.12794 -11.62757,2.61801 -17.38385,4.18251 -5.25681,1.456 -10.48368,3.01796 -15.72587,4.52574 -5.96731,1.72311 -11.92902,3.46476 -17.89891,5.17877 -5.93915,1.71702 -11.86285,3.48672 -17.80355,5.19825 -5.2128,1.5133 -10.42173,3.03985 -15.6323,4.56073 -5.10426,1.47239 -10.20627,2.95247 -15.30613,4.44024 -6.25279,1.78075 -12.49482,3.59908 -18.7413,5.40184 -6.42652,1.84194 -12.83655,3.74074 -19.2506,5.62539 -5.58242,1.81087 -8.96012,2.87992 -13.1408,-0.49745 -3.57836,-5.26326 -5.09174,-11.47911 -6.93153,-17.41883 -1.38666,-4.57974 -2.74708,-9.16771 -4.02341,-13.77952 -1.62402,-6.11993 -3.35613,-12.20878 -5.16664,-18.27542 -1.66053,-5.42893 -2.93142,-10.94619 -5.51152,-16.05639 -2.92684,-5.07254 -5.49053,-10.30719 -8.62308,-15.28074 -0.87412,-1.7524 -2.21422,-3.24756 -3.5064,-4.7668 0,0 25.34631,-21.31154 25.34631,-21.31154 l 0,0 c 1.34738,1.62237 2.79011,3.20111 3.66773,5.07909 3.10543,5.06108 5.56043,10.39972 8.60282,15.49388 2.9022,5.15098 4.44214,10.71047 5.87633,16.37749 1.71062,6.06986 3.50251,12.11544 5.35256,18.14442 1.34329,4.60962 2.54315,9.25969 3.84445,13.8813 1.59634,5.5388 3.05508,11.2305 6.06982,16.25382 2.63809,2.12123 7.18549,-0.50186 10.41992,-1.19922 6.39053,-1.83502 12.78523,-3.65595 19.16331,-5.53401 6.28523,-1.83776 12.5749,-3.66035 18.85379,-5.51969 5.10961,-1.47707 10.21638,-2.96374 15.3215,-4.45617 5.19374,-1.50151 10.38925,-2.99698 15.58069,-4.50668 5.90663,-1.73017 11.82988,-3.40278 17.73728,-5.13026 5.99142,-1.76417 11.98956,-3.50478 17.98169,-5.26613 5.24663,-1.54375 10.50638,-3.04486 15.78491,-4.47451 5.79848,-1.53392 11.64285,-2.85921 17.52468,-3.96252 5.6868,-1.11506 11.30858,-2.39728 16.83911,-4.20012 5.07283,-1.46848 10.14707,-2.93496 15.24618,-4.3087 5.55877,-1.46364 11.16463,-2.69708 16.80249,-3.74366 8.03867,-1.59935 15.95937,-3.61839 23.76287,-6.20144 0,0 -22.31504,23.39625 -22.31504,23.39625 z"
       inkscape:connector-curvature="0" />
    <path
       style="fill:#000000;stroke:#000000"
       id="path3427"
       sodipodi:type="arc"
       sodipodi:cx="647.38062"
       sodipodi:cy="-288.28967"
       sodipodi:rx="95.714287"
       sodipodi:ry="104.28571"
       sodipodi:start="0"
       sodipodi:end="2.4636246"
       sodipodi:open="true"
       d="m 743.0949,-288.28967 a 95.714287,104.28571 0 0 1 -63.8865,98.35112 95.714287,104.28571 0 0 1 -106.37474,-32.9419"
       transform="matrix(0.58226036,0.81300238,-0.81300238,0.58226036,0,0)" />
    <path
       style="fill:#cccccc;stroke:#000000;stroke-width:0.55815703"
       id="path3427-6"
       sodipodi:type="arc"
       sodipodi:cx="678.46362"
       sodipodi:cy="-252.86195"
       sodipodi:rx="52.606232"
       sodipodi:ry="59.112202"
       sodipodi:start="0"
       sodipodi:end="2.4636246"
       sodipodi:open="true"
       d="m 731.06985,-252.86195 a 52.606232,59.112202 0 0 1 -35.11312,55.7483 52.606232,59.112202 0 0 1 -58.46541,-18.67244"
       transform="matrix(0.61911606,0.7852995,-0.83821373,0.54534186,0,0)" />
  </g>
</svg>
