<?xml version="1.0" encoding="UTF-8" standalone="no"?>
<!-- Created with Inkscape (http://www.inkscape.org/) -->

<svg
   xmlns:dc="http://purl.org/dc/elements/1.1/"
   xmlns:cc="http://creativecommons.org/ns#"
   xmlns:rdf="http://www.w3.org/1999/02/22-rdf-syntax-ns#"
   xmlns:svg="http://www.w3.org/2000/svg"
   xmlns="http://www.w3.org/2000/svg"
   xmlns:sodipodi="http://sodipodi.sourceforge.net/DTD/sodipodi-0.dtd"
   xmlns:inkscape="http://www.inkscape.org/namespaces/inkscape"
   width="210mm"
   height="297mm"
   viewBox="0 0 744.09448819 1052.3622047"
   id="svg3346"
   version="1.1"
   inkscape:version="0.91 r13725"
   sodipodi:docname="Runner.svg">
  <defs
     id="defs3348">
    <inkscape:perspective
       sodipodi:type="inkscape:persp3d"
       inkscape:vp_x="0 : 526.1811 : 1"
       inkscape:vp_y="0 : 1000 : 0"
       inkscape:vp_z="744.09449 : 526.1811 : 1"
       inkscape:persp3d-origin="372.04724 : 350.7874 : 1"
       id="perspective3513" />
  </defs>
  <sodipodi:namedview
     id="base"
     pagecolor="#ffffff"
     bordercolor="#666666"
     borderopacity="1.0"
     inkscape:pageopacity="0.0"
     inkscape:pageshadow="2"
     inkscape:zoom="0.35"
     inkscape:cx="375"
     inkscape:cy="494.10729"
     inkscape:document-units="px"
     inkscape:current-layer="layer1"
     showgrid="false"
     inkscape:window-width="1366"
     inkscape:window-height="706"
     inkscape:window-x="-8"
     inkscape:window-y="-8"
     inkscape:window-maximized="1"
     inkscape:snap-page="true" />
  <metadata
     id="metadata3351">
    <rdf:RDF>
      <cc:Work
         rdf:about="">
        <dc:format>image/svg+xml</dc:format>
        <dc:type
           rdf:resource="http://purl.org/dc/dcmitype/StillImage" />
        <dc:title />
      </cc:Work>
    </rdf:RDF>
  </metadata>
  <g
     inkscape:label="Layer 1"
     inkscape:groupmode="layer"
     id="layer1">
    <rect
       style="fill:#552200;stroke:#000000"
       id="rect3342"
       width="502.85715"
       height="65.714287"
       x="142.85716"
       y="769.505" />
    <path
       style="fill:#552200;stroke:#000000"
       id="path3344"
       sodipodi:type="arc"
       sodipodi:cx="102.85712"
       sodipodi:cy="783.79071"
       sodipodi:rx="68.571426"
       sodipodi:ry="68.571426"
       sodipodi:start="0"
       sodipodi:end="6.1615708"
       sodipodi:open="true"
       d="m 171.42854,783.79071 a 68.571426,68.571426 0 0 1 -66.48692,68.53974 68.571426,68.571426 0 0 1 -70.529197,-64.37267 68.571426,68.571426 0 0 1 62.198902,-72.45346 68.571426,68.571426 0 0 1 74.310755,59.96765" />
    <path
       style="fill:#552200;stroke:#000000"
       id="path3344-2"
       sodipodi:type="arc"
       sodipodi:cx="668.57251"
       sodipodi:cy="780.9353"
       sodipodi:rx="68.571426"
       sodipodi:ry="68.571426"
       sodipodi:start="0"
       sodipodi:end="6.1615708"
       sodipodi:open="true"
       d="m 737.14394,780.9353 a 68.571426,68.571426 0 0 1 -66.48693,68.53974 68.571426,68.571426 0 0 1 -70.52919,-64.37267 68.571426,68.571426 0 0 1 62.1989,-72.45345 68.571426,68.571426 0 0 1 74.31075,59.96764" />
    <path
       style="fill:#000000;stroke:#000000"
       id="path3361"
       sodipodi:type="arc"
       sodipodi:cx="582.85724"
       sodipodi:cy="935.2193"
       sodipodi:rx="122.85714"
       sodipodi:ry="114.28571"
       sodipodi:start="0"
       sodipodi:end="6.1615708"
       sodipodi:open="true"
       d="M 705.71438,935.2193 A 122.85714,114.28571 0 0 1 586.59197,1049.4522 122.85714,114.28571 0 0 1 460.22716,942.16442 122.85714,114.28571 0 0 1 571.66686,821.40865 122.85714,114.28571 0 0 1 704.80696,921.35473" />
    <path
       style="fill:#000000;stroke:#000000"
       id="path3361-0"
       sodipodi:type="arc"
       sodipodi:cx="194.28752"
       sodipodi:cy="938.07935"
       sodipodi:rx="122.85714"
       sodipodi:ry="114.28571"
       sodipodi:start="0"
       sodipodi:end="6.1615708"
       sodipodi:open="true"
       d="M 317.14466,938.07935 A 122.85714,114.28571 0 0 1 198.02225,1052.3122 122.85714,114.28571 0 0 1 71.657445,945.02446 122.85714,114.28571 0 0 1 183.09714,824.2687 122.85714,114.28571 0 0 1 316.23725,924.21478" />
    <path
       style="fill:#0000ff;stroke:#000000"
       id="path3378"
       sodipodi:type="arc"
       sodipodi:cx="290.07144"
       sodipodi:cy="731.83099"
       sodipodi:rx="85.714287"
       sodipodi:ry="75.714287"
       sodipodi:start="2.7245868"
       sodipodi:end="0.37660535"
       d="m 211.70238,762.49715 a 85.714287,75.714287 0 0 1 24.73503,-89.72628 85.714287,75.714287 0 0 1 104.52384,-1.86533 85.714287,75.714287 0 0 1 28.81749,88.77058"
       sodipodi:open="true"
       transform="matrix(0.99927476,0.03807831,-0.03807831,0.99927476,0,0)" />
    <path
       style="fill:#0000ff;stroke:#000000"
       id="path3378-7"
       sodipodi:type="arc"
       sodipodi:cx="205.06593"
       sodipodi:cy="916.30878"
       sodipodi:rx="85.714287"
       sodipodi:ry="75.714287"
       sodipodi:start="2.7245868"
       sodipodi:end="0.37660535"
       d="m 126.69687,946.97493 a 85.714287,75.714287 0 0 1 24.73503,-89.72628 85.714287,75.714287 0 0 1 104.52384,-1.86533 85.714287,75.714287 0 0 1 28.81749,88.77059"
       sodipodi:open="true"
       transform="matrix(0.87136427,-0.49063664,0.49063664,0.87136427,0,0)" />
    <path
       sodipodi:type="spiral"
       style="fill:#4d4d4d;fill-rule:evenodd;stroke:#000000;stroke-width:1px;stroke-linecap:butt;stroke-linejoin:miter;stroke-opacity:1"
       id="path3395-9"
       sodipodi:cx="1182.8982"
       sodipodi:cy="740.88824"
       sodipodi:expansion="1"
       sodipodi:revolution="3"
       sodipodi:radius="137.44016"
       sodipodi:argument="-18.093561"
       sodipodi:t0="0"
       d="m 1182.8982,740.88824 c 5.0138,4.72734 -3.8987,9.09086 -7.8571,8.33334 -10.7272,-2.05284 -12.8419,-15.65343 -8.8096,-24.04762 7.213,-15.01524 27.0222,-17.33205 40.2381,-9.28572 19.395,11.80831 21.9499,38.54312 9.7619,56.42857 -16.2446,23.83849 -50.1179,26.62171 -72.619,10.23811 -28.3154,-20.6171 -31.3215,-61.71825 -10.7143,-88.80953 24.958,-32.81117 73.333,-36.03738 105,-11.19049 37.3185,29.28121 40.7634,84.9567 11.6667,121.19048 -33.5934,41.83333 -96.5864,45.49623 -137.381,12.14287 -46.3533,-37.89819 -50.2337,-108.2203 -12.6191,-153.57142 42.198,-50.87711 119.8573,-54.97472 169.762,-13.09526 55.4035,46.49413 59.7182,131.49656 13.5714,185.95238"
       transform="matrix(0.8461372,0,0,0.86937537,-423.38669,298.14847)" />
    <path
       sodipodi:type="spiral"
       style="fill:#4d4d4d;fill-rule:evenodd;stroke:#000000;stroke-width:1px;stroke-linecap:butt;stroke-linejoin:miter;stroke-opacity:1"
       id="path3395-9-7"
       sodipodi:cx="1182.8982"
       sodipodi:cy="740.88824"
       sodipodi:expansion="1"
       sodipodi:revolution="3"
       sodipodi:radius="137.44016"
       sodipodi:argument="-18.093561"
       sodipodi:t0="0"
       d="m 1182.8982,740.88824 c 5.0138,4.72734 -3.8987,9.09086 -7.8571,8.33334 -10.7272,-2.05284 -12.8419,-15.65343 -8.8096,-24.04762 7.213,-15.01524 27.0222,-17.33205 40.2381,-9.28572 19.395,11.80831 21.9499,38.54312 9.7619,56.42857 -16.2446,23.83849 -50.1179,26.62171 -72.619,10.23811 -28.3154,-20.6171 -31.3215,-61.71825 -10.7143,-88.80953 24.958,-32.81117 73.333,-36.03738 105,-11.19049 37.3185,29.28121 40.7634,84.9567 11.6667,121.19048 -33.5934,41.83333 -96.5864,45.49623 -137.381,12.14287 -46.3533,-37.89819 -50.2337,-108.2203 -12.6191,-153.57142 42.198,-50.87711 119.8573,-54.97472 169.762,-13.09526 55.4035,46.49413 59.7182,131.49656 13.5714,185.95238"
       transform="matrix(0.8461372,0,0,0.86937537,-819.10106,301.00561)" />
    <path
       sodipodi:type="star"
       style="fill:#ffff00;stroke:#000000"
       id="path3433"
       sodipodi:sides="5"
       sodipodi:cx="-797.14288"
       sodipodi:cy="463.79077"
       sodipodi:r1="309.31128"
       sodipodi:r2="154.65564"
       sodipodi:arg1="1.3661545"
       sodipodi:arg2="1.994473"
       inkscape:flatsided="false"
       inkscape:rounded="0"
       inkscape:randomized="0"
       d="m -734.28574,766.64791 -126.43837,-161.8756 -205.02909,12.38716 114.88123,-170.27235 -75.13833,-191.16642 197.43884,56.6415 158.59104,-130.5345 7.1427,205.27872 173.15302,110.49165 -193.02445,70.22773 z"
       inkscape:transform-center-x="-12.131035"
       inkscape:transform-center-y="7.244612"
       transform="matrix(0.62454095,0,0,0.6934614,850.88217,21.098177)" />
    <path
       style="fill:#00ff00;stroke:#000000"
       id="path3354"
       sodipodi:type="arc"
       sodipodi:cx="481.42856"
       sodipodi:cy="455.21936"
       sodipodi:rx="184.28572"
       sodipodi:ry="180"
       sodipodi:start="0"
       sodipodi:end="6.1615708"
       sodipodi:open="true"
       d="M 665.71428,455.21936 A 184.28572,180 0 0 1 487.03065,635.13617 184.28572,180 0 0 1 297.48343,466.15792 184.28572,180 0 0 1 464.64299,275.96759 184.28572,180 0 0 1 664.35316,433.38267" />
    <path
       style="fill:#000000;stroke:#000000;stroke-width:0.73100638"
       id="path3431"
       d="m 640.48688,553.4745 c -8.2374,0.16793 -16.3919,-0.33903 -24.5742,-1.01766 -5.7054,-0.52392 -11.4404,-0.7244 -17.1778,-0.82803 -5.2743,-0.0639 -10.5495,-0.0424 -15.82407,-0.0319 -5.8637,0.31572 -11.6122,-0.4772 -17.4139,-1.00667 -5.9308,-0.54835 -11.8963,-0.72967 -17.8605,-0.83312 -5.4543,-0.0683 -10.9094,-0.0265 -16.3641,-0.041 -6.2111,-0.01 -12.422,-6.5e-4 -18.63304,-0.0201 -6.18236,-0.008 -12.36458,0.0389 -18.5469,0.0252 -5.42801,-10e-4 -10.85601,0.0118 -16.284,0.0187 -5.31238,-0.01 -10.62473,-0.012 -15.93717,-0.006 -6.50133,-0.0343 -13.0028,-0.0295 -19.50422,-0.0409 -6.68523,-0.024 -13.37049,0.0112 -20.05566,0.0317 -5.86598,0.18165 -9.40781,0.26597 -12.48033,-4.1436 -1.968,-6.05257 -1.68726,-12.44384 -1.79699,-18.66099 -0.054,-4.78476 -0.0805,-9.57011 -0.0196,-14.35488 0.14773,-6.33002 0.18301,-12.66035 0.13679,-18.99122 -0.0801,-5.67664 0.23863,-11.3294 -0.81345,-16.9565 -1.39554,-5.68766 -2.39714,-11.42969 -4.01785,-17.07968 -0.35055,-1.92668 -1.22034,-3.73633 -2.0374,-5.55574 0,0 30.28536,-13.39458 30.28536,-13.39458 l 0,0 c 0.84129,1.93385 1.78632,3.85239 2.1052,5.90065 1.57025,5.72647 2.43845,11.53804 3.93894,17.2787 1.35001,5.75611 1.27787,11.52449 1.07419,17.36661 -0.0506,6.3061 -0.0164,12.61156 0.0783,18.9173 0.004,4.80135 -0.14101,9.60154 -0.18066,14.40269 -0.0122,5.76424 -0.19919,11.63693 1.2945,17.30184 1.9416,2.77297 7.04022,1.52261 10.34079,1.75525 6.64874,0.0206 13.29755,0.0559 19.94634,0.0317 6.54839,-0.0114 13.09681,-0.007 19.64512,-0.0409 5.31882,0.007 10.63759,0.004 15.95637,-0.005 5.40643,0.007 10.81287,0.0203 16.21937,0.0188 6.1548,-0.0137 12.3095,0.0325 18.4643,0.0216 6.2457,-0.0227 12.4913,-0.0209 18.7369,-0.0407 5.469,-0.0188 10.9387,0.007 16.4065,0.10667 5.9962,0.14458 11.97827,0.50232 17.93437,1.08367 5.7721,0.51566 11.5284,0.85267 17.3423,0.66425 5.2811,0.005 10.563,0.0123 15.8429,0.1156 5.7464,0.1452 11.4738,0.5246 17.1798,1.09238 8.1657,0.70669 16.3352,0.97746 24.5495,0.67391 0,0 -27.956,16.24216 -27.956,16.24216 z"
       inkscape:connector-curvature="0" />
    <path
       style="fill:#000000;stroke:#000000"
       id="path3427"
       sodipodi:type="arc"
       sodipodi:cx="647.38062"
       sodipodi:cy="-288.28967"
       sodipodi:rx="95.714287"
       sodipodi:ry="104.28571"
       sodipodi:start="0"
       sodipodi:end="2.4636246"
       sodipodi:open="true"
       d="m 743.0949,-288.28967 a 95.714287,104.28571 0 0 1 -63.8865,98.35112 95.714287,104.28571 0 0 1 -106.37474,-32.9419"
       transform="matrix(0.58226036,0.81300238,-0.81300238,0.58226036,0,0)" />
    <path
       style="fill:#cccccc;stroke:#000000;stroke-width:0.55815703"
       id="path3427-6"
       sodipodi:type="arc"
       sodipodi:cx="678.46362"
       sodipodi:cy="-252.86195"
       sodipodi:rx="52.606232"
       sodipodi:ry="59.112202"
       sodipodi:start="0"
       sodipodi:end="2.4636246"
       sodipodi:open="true"
       d="m 731.06985,-252.86195 a 52.606232,59.112202 0 0 1 -35.11312,55.7483 52.606232,59.112202 0 0 1 -58.46541,-18.67244"
       transform="matrix(0.61911606,0.7852995,-0.83821373,0.54534186,0,0)" />
  </g>
</svg>
